<svg width="30" height="29" viewBox="0 0 30 29" fill="none" xmlns="http://www.w3.org/2000/svg">
<path d="M6.15938 0C5.13081 0 4.28437 0.846444 4.28437 1.87501V2.14153H2.67723C1.20267 2.14153 0 3.34821 0 4.82277V6.96161V6.96563V26.2472C0 27.7217 1.20133 28.9284 2.67723 28.9284H27.3228C28.7973 28.9284 30 27.7217 30 26.2472V6.96563V6.96161V4.82277C30 3.34821 28.7973 2.14153 27.3228 2.14153H25.7116V1.87501C25.7116 0.846444 24.8706 0 23.842 0H23.838C22.8094 0 21.963 0.846444 21.963 1.87501V2.14153H19.8188V1.87501C19.8188 0.846444 18.9777 0 17.9491 0H17.9451C16.9166 0 16.0701 0.846444 16.0701 1.87501V2.14153H13.9259V1.87501C13.9259 0.846444 13.0849 0 12.0563 0H12.0523C11.0237 0 10.1773 0.846444 10.1773 1.87501V2.14153H8.03307V1.87501C8.03307 0.846444 7.19201 0 6.16344 0H6.15938ZM6.15938 1.07276H6.1634C6.61206 1.07276 6.9616 1.42632 6.9616 1.87498V2.14149H5.3558V1.87498C5.3558 1.42632 5.70935 1.07276 6.15802 1.07276H6.15938ZM12.0524 1.07276H12.0564C12.5051 1.07276 12.8546 1.42632 12.8546 1.87498V2.14149H11.2502V1.87498C11.2502 1.42632 11.6037 1.07276 12.0524 1.07276ZM17.9454 1.07276H17.9494C18.3981 1.07276 18.7476 1.42632 18.7476 1.87498V2.14149H17.1432V1.87498C17.1432 1.42632 17.4967 1.07276 17.9454 1.07276ZM23.8384 1.07276H23.8424C24.2911 1.07276 24.6406 1.42632 24.6406 1.87498V2.14149H23.0362V1.87498C23.0362 1.42632 23.3898 1.07276 23.8384 1.07276ZM2.67767 3.21294H4.28481V3.45669C4.28481 4.5 5.14463 5.35848 6.1866 5.35848H6.96204C7.104 5.35982 7.24195 5.30357 7.34241 5.20179C7.44419 5.10134 7.50044 4.96339 7.4991 4.82142C7.4991 4.67946 7.44285 4.54285 7.34107 4.44239C7.24062 4.34195 7.10401 4.2857 6.96204 4.28704H6.1866C5.72319 4.28704 5.35624 3.92142 5.35624 3.45801V3.21292H7.45088C7.46695 3.21426 7.48303 3.2156 7.49909 3.2156C7.51516 3.2156 7.5299 3.21426 7.54597 3.21292H10.1777V3.45667C10.1777 4.49999 11.0375 5.35846 12.0795 5.35846H12.8549C12.9982 5.3598 13.1348 5.30355 13.2353 5.20177C13.337 5.10132 13.3933 4.96338 13.3933 4.8214C13.392 4.67944 13.3357 4.54283 13.2353 4.44238C13.1335 4.34193 12.9969 4.28568 12.8549 4.28702H12.0795C11.6161 4.28702 11.2491 3.9214 11.2491 3.45799L11.2504 3.21291H13.3437C13.3598 3.21425 13.3759 3.21559 13.3933 3.21559C13.408 3.21559 13.4241 3.21425 13.4388 3.21291H16.0705V3.45666C16.0705 4.49997 16.9303 5.35845 17.9723 5.35845H18.7478C18.8911 5.35979 19.0277 5.30354 19.1295 5.20175C19.2299 5.10131 19.2862 4.96336 19.2862 4.82139C19.2862 4.67941 19.2286 4.54282 19.1281 4.44236C19.0263 4.34191 18.8897 4.28566 18.7478 4.287H17.9723C17.5089 4.287 17.142 3.92138 17.142 3.45798L17.1433 3.21289H19.2366C19.2527 3.21423 19.2687 3.21557 19.2862 3.21557C19.3009 3.21557 19.317 3.21423 19.3317 3.21289H21.9634V3.45664C21.9634 4.49995 22.8232 5.35843 23.8652 5.35843H24.6406C24.7839 5.35977 24.9205 5.30352 25.0223 5.20174C25.1228 5.10129 25.179 4.96334 25.179 4.82137C25.179 4.6794 25.1214 4.5428 25.021 4.44234C24.9205 4.3419 24.7839 4.28565 24.6406 4.28699H23.8652C23.4018 4.28699 23.0348 3.92136 23.0348 3.45796L23.0361 3.21287H25.1295C25.1455 3.21421 25.1629 3.21555 25.179 3.21555C25.1937 3.21555 25.2098 3.21421 25.2245 3.21287H27.3219C28.2219 3.21287 28.9277 3.92403 28.9277 4.82269L28.929 6.42849H1.07192V4.82269C1.07192 3.92269 1.77773 3.21287 2.67639 3.21287L2.67767 3.21294ZM1.07187 7.50002H28.929V26.2474C28.929 27.1474 28.2218 27.8559 27.3232 27.8559H2.67761C1.77761 27.8559 1.07314 27.1461 1.07314 26.2474L1.07187 7.50002ZM10.1788 9.64287C9.88284 9.64153 9.64311 9.88126 9.64177 10.1772V13.3929V13.3915C9.64043 13.5348 9.69668 13.6714 9.79847 13.7732C9.89892 13.8737 10.0369 13.9299 10.1788 13.9299H13.3944C13.6904 13.9286 13.9288 13.6875 13.9288 13.3915V10.1773C13.9275 9.88261 13.6891 9.64422 13.3944 9.64288L10.1788 9.64287ZM16.606 9.64287C16.3114 9.64421 16.073 9.8826 16.0716 10.1772V13.3929V13.3915C16.0716 13.6875 16.31 13.9286 16.606 13.9299H19.8203C19.9636 13.9299 20.1002 13.8737 20.202 13.7732C20.3024 13.6728 20.36 13.5348 20.3587 13.3915V10.1772C20.3587 10.0339 20.3011 9.89866 20.2006 9.79821C20.0989 9.69776 19.9623 9.64285 19.8203 9.64285L16.606 9.64287ZM23.0359 9.64287C22.74 9.64153 22.4989 9.88126 22.4976 10.1772V13.3929V13.3915C22.4976 13.5348 22.5538 13.6714 22.6542 13.7732C22.756 13.8737 22.8926 13.9299 23.0359 13.9299H26.2516C26.5475 13.9286 26.7859 13.6875 26.7846 13.3915V10.1773C26.7833 9.88261 26.5449 9.64422 26.2516 9.64288L23.0359 9.64287ZM10.7133 10.7143H12.8575V12.8585H10.7133V10.7143ZM17.1446 10.7143H19.2875V12.8585H17.1433L17.1446 10.7143ZM23.5704 10.7143H25.7133V12.8585H23.5691L23.5704 10.7143ZM3.74924 15.5345C3.45459 15.5359 3.2162 15.7742 3.21486 16.0689V19.2845V19.2832C3.21352 19.5791 3.45325 19.8202 3.74924 19.8216H6.96352C7.2595 19.8202 7.49923 19.5791 7.49789 19.2832V16.0689C7.49655 15.7742 7.25816 15.5358 6.96352 15.5345L3.74924 15.5345ZM10.1805 15.5345H10.1792C9.88322 15.5332 9.64349 15.7729 9.64215 16.0689V19.2845V19.2832C9.64081 19.4265 9.69706 19.5631 9.79884 19.6649C9.89929 19.7653 10.0372 19.8216 10.1792 19.8216H13.3948C13.6908 19.8202 13.9292 19.5792 13.9292 19.2832V16.0689C13.9279 15.7743 13.6895 15.5359 13.3948 15.5345L10.1805 15.5345ZM16.6077 15.5345H16.6064C16.3117 15.5359 16.0733 15.7742 16.072 16.0689V19.2845V19.2832C16.072 19.5791 16.3104 19.8202 16.6064 19.8216H19.8207C19.964 19.8216 20.1006 19.7653 20.2024 19.6649C20.3028 19.5631 20.3604 19.4265 20.3591 19.2832V16.0689C20.3591 15.9256 20.3015 15.7903 20.201 15.6898C20.0992 15.5894 19.9626 15.5345 19.8207 15.5345L16.6077 15.5345ZM23.0377 15.5345H23.0363C22.7403 15.5332 22.4993 15.7729 22.4979 16.0689V19.2845V19.2832C22.4979 19.4265 22.5542 19.5631 22.6546 19.6649C22.7564 19.7653 22.893 19.8216 23.0363 19.8216H26.2519C26.5479 19.8202 26.7863 19.5792 26.785 19.2832V16.0689C26.7836 15.7743 26.5452 15.5359 26.2519 15.5345L23.0377 15.5345ZM4.28752 16.6073H6.42636V18.7501H4.28752V16.6073ZM10.7133 16.6073H12.8575V18.7501H10.7133V16.6073ZM17.1446 16.6073H19.2875V18.7501H17.1433L17.1446 16.6073ZM23.5704 16.6073H25.7133V18.7501H23.5691L23.5704 16.6073ZM3.74924 21.4275C3.45326 21.4288 3.21352 21.6686 3.21486 21.9645V25.1762C3.21352 25.4721 3.45325 25.7132 3.74924 25.7132H6.96352C7.2595 25.7132 7.49923 25.4721 7.49789 25.1762V21.9645C7.49923 21.6686 7.2595 21.4288 6.96352 21.4275H3.74924ZM10.1805 21.4275H10.1792C10.0372 21.4262 9.89929 21.4837 9.79883 21.5842C9.69705 21.6846 9.6408 21.8226 9.64214 21.9646V25.1762C9.6408 25.3181 9.69705 25.4561 9.79883 25.5565C9.89928 25.6583 10.0372 25.7146 10.1792 25.7132H13.3948C13.6908 25.7132 13.9292 25.4722 13.9292 25.1762V21.9646C13.9292 21.6686 13.6908 21.4289 13.3948 21.4275L10.1805 21.4275ZM16.6077 21.4275H16.6064C16.3104 21.4288 16.072 21.6686 16.072 21.9645V25.1762C16.072 25.4721 16.3104 25.7132 16.6064 25.7132H19.8207C19.964 25.7145 20.1006 25.6583 20.2024 25.5578C20.3028 25.4561 20.3604 25.3195 20.3591 25.1761V21.9645C20.3604 21.8226 20.3028 21.6846 20.2024 21.5842C20.1006 21.4824 19.964 21.4261 19.8207 21.4275L16.6077 21.4275ZM4.28889 22.4989H6.42773V24.6431L4.28756 24.6418L4.28889 22.4989ZM10.7147 22.4989H12.8589V24.6431L10.7134 24.6418L10.7147 22.4989ZM17.146 22.4989H19.2889V24.6431L17.1433 24.6418L17.146 22.4989Z" fill="white"/>
</svg>
