<svg width="25" height="30" viewBox="0 0 25 30" fill="none" xmlns="http://www.w3.org/2000/svg">
<path d="M12.3016 9.46227C7.54494 9.46227 3.67459 13.3326 3.67459 18.0893C3.67459 22.8459 7.54494 26.7194 12.3016 26.7194C17.0582 26.7194 20.9286 22.8459 20.9286 18.0893C20.9286 13.3326 17.0582 9.46227 12.3016 9.46227ZM12.3016 25.7439C8.08054 25.7439 4.64377 22.3103 4.64377 18.0861C4.64377 13.865 8.07735 10.4315 12.3016 10.4315C16.5258 10.4315 19.9594 13.8682 19.9594 18.0893C19.9594 22.3103 16.5226 25.7439 12.3016 25.7439ZM23.9381 10.8874C24.7128 10.2529 24.8276 9.10521 24.1932 8.3305L23.4089 7.37088C23.1029 6.99787 22.6661 6.76196 22.1847 6.71413C21.7001 6.66631 21.2283 6.80659 20.8552 7.11265L19.4238 8.28268C19.3664 8.3305 19.3122 8.38151 19.2612 8.43252C17.8361 7.40276 16.1783 6.68225 14.3802 6.36344V4.65781H15.5184C16.4971 4.65781 17.2941 3.86079 17.2941 2.88204V1.77577C17.2941 0.797025 16.4971 0 15.5184 0H8.91582C7.93708 0 7.14005 0.797025 7.14005 1.77577V2.88842C7.14005 3.86716 7.93708 4.66419 8.91582 4.66419H10.054V6.4017C8.32284 6.73326 6.72241 7.44102 5.34515 8.4389C5.29414 8.3847 5.23995 8.33688 5.18256 8.28905L3.7511 7.11902C3.37491 6.81297 2.90626 6.6695 2.41848 6.72051C1.93389 6.76833 1.50031 7.00106 1.19425 7.37726L0.409977 8.33688C-0.224454 9.11158 -0.109683 10.2593 0.665025 10.8937L2.06141 12.0351C1.00615 13.8108 0.397225 15.8831 0.397225 18.0956C0.397225 24.6599 5.73729 30 12.3016 30C18.8659 30 24.2059 24.6536 24.2059 18.0893C24.2059 15.8767 23.597 13.8045 22.5418 12.0287L23.9381 10.8874ZM20.0359 9.03826L21.4674 7.86823C21.6395 7.72476 21.8595 7.661 22.0859 7.68332C22.3122 7.70563 22.5131 7.81403 22.6565 7.98619L23.4408 8.9458C23.7341 9.30606 23.6831 9.83847 23.3228 10.135L22.0157 11.203C21.9647 11.1328 21.9105 11.0627 21.8563 10.9926C21.8404 10.9702 21.8244 10.9511 21.8085 10.9288C21.3622 10.3358 20.8616 9.78746 20.3133 9.28693C20.3069 9.28055 20.3005 9.27418 20.2941 9.2678C20.2049 9.19447 20.1252 9.11477 20.0359 9.03826ZM8.91582 3.69182C8.47268 3.69182 8.11242 3.33156 8.11242 2.88842V1.77577C8.11242 1.33262 8.47268 0.97237 8.91582 0.97237H15.512C15.9551 0.97237 16.3154 1.33262 16.3154 1.77577V2.88842C16.3154 3.33156 15.9551 3.69182 15.512 3.69182H14.3738H10.054H8.91582ZM11.0263 6.25186V4.66419H13.4047V6.23592C13.3313 6.22954 13.258 6.22636 13.1815 6.21998C13.0731 6.2136 12.9647 6.20404 12.8563 6.19766C12.7543 6.19447 12.6523 6.19129 12.5534 6.19129C12.4706 6.1881 12.3845 6.18491 12.3016 6.18491C12.2856 6.18491 12.2697 6.18491 12.2538 6.18491C12.1581 6.18491 12.0593 6.1881 11.9636 6.19129C11.8584 6.19447 11.75 6.19447 11.6448 6.20085C11.5683 6.20404 11.4918 6.2136 11.4153 6.21679C11.291 6.22636 11.1666 6.23592 11.0423 6.24867C11.0359 6.25186 11.0327 6.25186 11.0263 6.25186ZM2.58745 11.2062L1.28033 10.1382C0.920073 9.84166 0.865875 9.30925 1.15918 8.94899L1.94345 7.98937C2.08373 7.81722 2.28777 7.70882 2.51412 7.6865C2.54281 7.68332 2.57151 7.68332 2.6002 7.68332C2.79467 7.68332 2.97958 7.75027 3.13261 7.87141L4.56407 9.04145C4.47799 9.11477 4.3951 9.19447 4.30902 9.27099C4.29946 9.27736 4.29308 9.28693 4.28352 9.29331C3.73198 9.79384 3.23144 10.3454 2.78511 10.9384C2.77236 10.9575 2.75642 10.9734 2.74367 10.9926C2.69584 11.0627 2.64165 11.1328 2.58745 11.2062ZM12.3016 29.0213C6.27289 29.0213 1.36959 24.118 1.36959 18.0893C1.36959 15.8448 2.04866 13.7566 3.2155 12.0191C3.32709 11.8533 3.44186 11.6876 3.56301 11.5282C3.63952 11.4261 3.71603 11.3305 3.79574 11.2317C3.87225 11.136 3.95514 11.0404 4.03484 10.9447C4.16237 10.7949 4.29627 10.6514 4.43336 10.508C4.51306 10.4251 4.59276 10.3454 4.67246 10.2657C4.78086 10.1573 4.89244 10.0521 5.00722 9.95005C5.13474 9.83528 5.26226 9.72689 5.39297 9.61849C6.93283 8.35919 8.82337 7.51435 10.8924 7.24655C11.0742 7.22423 11.2559 7.2051 11.4408 7.18916C11.495 7.18597 11.5492 7.1796 11.6066 7.17641C12.0689 7.14772 12.5343 7.14772 12.9966 7.17641C13.054 7.1796 13.1082 7.18597 13.1624 7.18916C13.3441 7.20191 13.529 7.22104 13.7075 7.24655C15.7766 7.51435 17.664 8.35919 19.207 9.61849C19.3409 9.72689 19.4716 9.83847 19.5991 9.95324C19.7107 10.0553 19.8191 10.1573 19.9275 10.2625C20.0104 10.3422 20.0901 10.4251 20.1698 10.508C20.3037 10.6482 20.4344 10.7917 20.5619 10.9384C20.6448 11.034 20.7277 11.1328 20.8074 11.2317C20.8839 11.3273 20.9605 11.423 21.037 11.5218C21.1581 11.6844 21.2761 11.8502 21.3909 12.0191C22.5513 13.7566 23.2304 15.8417 23.2304 18.0829C23.2336 24.118 18.3303 29.0213 12.3016 29.0213ZM16.7681 18.0893C16.7681 18.3571 16.5513 18.5739 16.2835 18.5739H12.3016C12.0338 18.5739 11.817 18.3571 11.817 18.0893V11.831C11.817 11.5632 12.0338 11.3464 12.3016 11.3464C12.5694 11.3464 12.7862 11.5632 12.7862 11.831V17.6015H16.2803C16.5513 17.6015 16.7681 17.8215 16.7681 18.0893Z" fill="white"/>
</svg>
