<svg width="25" height="21" viewBox="0 0 25 21" fill="none" xmlns="http://www.w3.org/2000/svg">
<path d="M21.9832 10.4996V10.4797C21.9475 9.91466 21.6889 9.40511 21.2939 9.03633C20.8958 8.66357 20.3521 8.43458 19.7534 8.43062H17.1469V9.25741C17.1469 9.60735 16.8557 9.89187 16.4953 9.89187C16.3415 9.89187 16.201 9.84032 16.089 9.75408L15.6156 9.44476C15.6258 9.83932 15.6319 10.1912 15.6319 10.4995C15.6319 11.6971 15.5779 12.8491 15.4802 13.9188H21.3101C21.7428 12.861 21.9821 11.7081 21.9821 10.4995L21.9832 10.4996ZM23.2793 10.8842C23.2274 12.2741 22.8995 13.5936 22.3456 14.794L22.3283 14.8317C21.7887 15.9896 21.0393 17.0355 20.1271 17.9239C18.1753 19.8243 15.4792 21 12.501 21C10.65 21 8.90592 20.544 7.38061 19.741C5.90529 18.9648 4.63677 17.8624 3.67758 16.5359H3.55133C2.57085 16.5359 1.68199 16.1483 1.04056 15.5237C0.398114 14.8982 0 14.0337 0 13.0791C0 12.3891 0.210757 11.7427 0.571184 11.2005C0.86543 10.7593 1.25945 10.3876 1.72273 10.1159C1.77465 8.72011 2.10557 7.39356 2.66453 6.18808C3.20618 5.02025 3.95757 3.96745 4.87394 3.07615C6.82575 1.17572 9.52181 0 12.5 0C14.351 0 16.0951 0.456029 17.6194 1.25901C19.0947 2.03524 20.3642 3.13761 21.3234 4.46408H21.4497C22.4291 4.46408 23.3149 4.85169 23.9584 5.47626L23.9605 5.47824C24.6029 6.10377 25 6.96726 25 7.92094C25 8.61093 24.7892 9.25628 24.4288 9.79954C24.1356 10.2407 23.7405 10.6124 23.2773 10.8841L23.2793 10.8842ZM19.2056 17.0276C19.7697 16.4784 20.2625 15.8608 20.6697 15.1877H15.3376C15.2175 16.0868 15.0648 16.9077 14.8846 17.6244C14.6911 18.3947 14.4549 19.0569 14.182 19.5853C16.1267 19.2473 17.8659 18.3312 19.2056 17.0276ZM7.9967 18.6267C8.85705 19.0797 9.79885 19.4059 10.7955 19.5823L10.7436 19.4713C10.4616 18.8715 10.2111 18.0824 10.0044 17.1506L8.86919 17.8891C8.57088 18.0834 8.16768 18.0061 7.96813 17.7156C7.8938 17.6076 7.85817 17.4847 7.85817 17.3637L7.85613 16.5359H5.32602C6.0764 17.3806 6.98164 18.0923 7.9967 18.6267ZM3.01989 10.4997V10.5195C3.05553 11.0846 3.31414 11.5941 3.70917 11.9629C4.11135 12.3386 4.66012 12.5686 5.26493 12.5686H7.85512V11.7418C7.85512 11.3919 8.14632 11.1074 8.50674 11.1074C8.66048 11.1074 8.80098 11.1589 8.91298 11.2452L9.38643 11.5545C9.37625 11.1599 9.37014 10.808 9.37014 10.4997C9.37014 9.30213 9.4241 8.15118 9.52184 7.08145H3.69193C3.2592 8.13923 3.01989 9.29213 3.01989 10.4997ZM5.79631 3.97254C5.23224 4.52176 4.73946 5.13937 4.33118 5.81249H9.66326C9.7834 4.91332 9.93613 4.0925 10.1163 3.37573C10.3098 2.60445 10.546 1.94323 10.8189 1.41482C8.8742 1.75386 7.13513 2.66988 5.7954 3.9735L5.79631 3.97254ZM17.0042 2.37348C16.1428 1.92042 15.201 1.59329 14.2043 1.41683L14.242 1.49416C14.5311 2.09591 14.7867 2.8979 14.9974 3.84861L16.1327 3.11004C16.431 2.91574 16.8342 2.99306 17.0337 3.28353C17.1081 3.39158 17.1437 3.51451 17.1437 3.63545L17.1457 4.46323H19.6748C18.9245 3.6186 18.0203 2.90783 17.0042 2.37348ZM9.15919 13.2051C9.15919 13.555 8.868 13.8396 8.50757 13.8396H5.26563C4.31367 13.8396 3.4472 13.4728 2.80882 12.876C2.41988 12.5131 2.11648 12.064 1.92811 11.5604C1.82834 11.6606 1.73874 11.7716 1.66035 11.8886C1.43432 12.2286 1.30298 12.637 1.30298 13.0782C1.30298 13.6829 1.55446 14.2302 1.96171 14.6257C2.36796 15.0213 2.93101 15.2661 3.55106 15.2661H8.50755C8.86695 15.2661 9.15917 15.5496 9.15917 15.9006V16.1782L11.6557 14.5524L9.15917 12.9266L9.15919 13.2051ZM10.72 12.4229L13.019 13.9189H14.1736C14.2734 12.8581 14.3284 11.7052 14.3284 10.4996C14.3284 10.0624 14.3233 9.68669 14.3141 9.37441L14.2826 8.57737L11.9836 7.08142H10.829C10.7292 8.14217 10.6742 9.29414 10.6742 10.4997C10.6742 10.9369 10.6793 11.3136 10.6885 11.6249L10.72 12.4219L10.72 12.4229ZM13.019 15.1879L11.1741 16.3895C11.3778 17.4472 11.6343 18.3206 11.9245 18.9413L11.9398 18.971C12.1719 19.4568 12.3674 19.7314 12.5008 19.7314C12.8459 19.7314 13.2491 18.8124 13.6218 17.3273C13.7796 16.6968 13.917 15.9771 14.026 15.188H13.018L13.019 15.1879ZM15.8424 7.79537C15.8424 7.44543 16.1336 7.16091 16.494 7.16091H19.7359C20.6879 7.16091 21.5544 7.52771 22.1927 8.12451C22.5817 8.48735 22.8851 8.93543 23.0734 9.43905C23.1732 9.33892 23.2628 9.22789 23.3412 9.1109C23.5672 8.77088 23.6986 8.36243 23.6986 7.92128C23.6986 7.31556 23.4471 6.76734 23.0419 6.37178C22.6356 5.97623 22.0726 5.73237 21.4505 5.73237H16.494C16.1346 5.73237 15.8424 5.44884 15.8424 5.0979V4.82031L13.3459 6.44612L15.8424 8.07193L15.8424 7.79537ZM11.9824 5.81168L13.8283 4.61015C13.6206 3.53651 13.359 2.65224 13.0617 2.02965C12.8305 1.54289 12.6351 1.26928 12.5007 1.26928C12.1555 1.26928 11.7523 2.18826 11.3797 3.67332C11.2219 4.30383 11.0844 5.02354 10.9755 5.81267H11.9834L11.9824 5.81168Z" fill="#CB30E0"/>
</svg>
