<svg width="36" height="25" viewBox="0 0 36 25" fill="none" xmlns="http://www.w3.org/2000/svg">
<path d="M33.6072 3.53735C33.6072 3.24716 33.5364 2.97253 33.412 2.73069L22.9721 11.9789L33.6074 21.0731L33.6072 3.53735ZM20.0339 14.5804C18.6952 15.7671 16.6811 15.7671 15.3426 14.5804L13.7413 13.1623L2.57754 22.7094C2.85391 22.889 3.18384 22.9944 3.53795 22.9944H31.8387C32.1928 22.9944 32.5228 22.889 32.7991 22.7094L21.6354 13.1623L20.0339 14.5804ZM16.5153 13.2573C17.1855 13.8497 18.1908 13.8497 18.861 13.2573L31.8316 1.76891H3.54454L16.5153 13.2573ZM1.7688 21.0736L12.4041 11.9793L1.96425 2.73114C1.83988 2.97297 1.76906 3.24763 1.76906 3.5378L1.7688 21.0736ZM35.376 21.2256C35.376 23.1792 33.792 24.7632 31.8384 24.7632H3.5376C1.58396 24.7632 0 23.1792 0 21.2256V3.5376C0 1.58396 1.58396 0 3.5376 0H31.8384C33.792 0 35.376 1.58396 35.376 3.5376V21.2256Z" fill="#223A93"/>
</svg>
