<svg width="30" height="30" viewBox="0 0 30 30" fill="none" xmlns="http://www.w3.org/2000/svg">
<path fill-rule="evenodd" clip-rule="evenodd" d="M1.61776 15.5357H0.535687C0.23972 15.5357 0 15.2946 0 15C0 14.7054 0.239721 14.4643 0.537024 14.4643H1.61776C1.8923 7.49883 7.49815 1.89246 14.4636 1.61783V0.535712C14.4636 0.239731 14.7047 0 14.9993 0C15.2953 0 15.535 0.239731 15.535 0.535712V1.61783C22.5015 1.89238 28.1063 7.49849 28.3822 14.4643H29.463C29.7589 14.4643 30 14.7054 30 15C30 15.2946 29.7589 15.5357 29.4643 15.5357H28.3822C28.1064 22.5012 22.5019 28.1075 15.535 28.3822V29.4643C15.535 29.7603 15.2953 30 14.9993 30C14.7047 30 14.4636 29.7603 14.4636 29.4643V28.3822C7.49849 28.1076 1.89237 22.5015 1.61776 15.5357ZM14.4636 2.68926C8.08886 2.96381 2.96375 8.08923 2.68913 14.4643H3.74981C4.04578 14.4643 4.2855 14.7054 4.2855 15C4.2855 15.2946 4.04578 15.5357 3.75115 15.5357H2.68913C2.96367 21.9108 8.08886 27.0361 14.4636 27.3107V26.25C14.4636 25.954 14.7047 25.7143 14.9993 25.7143C15.2953 25.7143 15.535 25.954 15.535 26.25V27.3107C21.9098 27.0362 27.0363 21.9108 27.3095 15.5357H26.2488C25.9529 15.5357 25.7131 15.2946 25.7131 15C25.7131 14.7054 25.9529 14.4643 26.2502 14.4643H27.3095C27.0363 8.08923 21.9097 2.96388 15.535 2.68926V3.74998C15.535 4.04596 15.2952 4.28569 14.9993 4.28569C14.7046 4.28569 14.4636 4.04596 14.4636 3.74998L14.4636 2.68926ZM15.4855 6.20353L22.4492 21.2021C22.5376 21.3949 22.5068 21.6213 22.3662 21.7807C22.2283 21.94 22.0073 22.003 21.8051 21.94L14.999 19.8467L8.19295 21.94C7.99073 22.003 7.77109 21.94 7.63183 21.7807C7.49256 21.6213 7.46041 21.3949 7.54879 21.2021L14.5126 6.20353C14.6009 6.01335 14.7898 5.89281 14.9987 5.89281C15.2076 5.89281 15.3971 6.01335 15.4855 6.20353Z" fill="white"/>
</svg>
