<svg width="26" height="26" viewBox="0 0 26 26" fill="none" xmlns="http://www.w3.org/2000/svg">
<path d="M13 0C9.55264 0 6.24512 1.36998 3.80736 3.80736C1.36986 6.24486 0 9.55232 0 13C0 16.4477 1.36998 19.7549 3.80736 22.1926C6.24486 24.6301 9.55232 26 13 26C16.4477 26 19.7549 24.63 22.1926 22.1926C24.6301 19.7551 26 16.4477 26 13C25.9963 9.5536 24.6262 6.24864 22.1888 3.8112C19.7513 1.3737 16.4464 0.00384 13 0ZM13 24C10.0825 24 7.28512 22.8412 5.22112 20.7789C3.15862 18.7151 2 15.9178 2 13C2 10.0822 3.15875 7.28512 5.22112 5.22112C7.28486 3.15862 10.0822 2 13 2C15.9178 2 18.7149 3.15875 20.7789 5.22112C22.8414 7.28486 24 10.0822 24 13C23.9963 15.9163 22.8363 18.7126 20.7738 20.7738C18.7125 22.8363 15.9162 23.9962 13 24ZM17.7062 16.2938C18.0963 16.6838 18.0963 17.3163 17.7062 17.7063C17.3162 18.0963 16.6837 18.0963 16.2937 17.7063L12.2937 13.7063C12.1062 13.5188 12 13.265 12 13V6.33379C12 5.78128 12.4475 5.33379 13 5.33379C13.5525 5.33379 14 5.78128 14 6.33379V12.5876L17.7062 16.2938Z" fill="white"/>
</svg>
