<svg width="96" height="96" viewBox="0 0 96 96" fill="none" xmlns="http://www.w3.org/2000/svg">
<rect width="96" height="96" rx="10" fill="#223B93"/>
<path d="M25.7158 76.8612C27.3807 75.955 29.0385 75.0698 30.6753 74.1566C39.6529 69.1831 48.5251 64.041 56.9267 58.1332C60.8325 55.3865 64.6399 52.5204 67.8783 48.9729C68.932 47.8209 69.8663 46.5845 70.4283 45.1093C71.1307 43.2618 70.5828 41.7585 68.8407 40.8243C68.3279 40.5503 67.7799 40.3395 67.232 40.1639C65.6374 39.6441 63.9866 39.3982 62.3217 39.3561C54.8123 39.1594 47.2958 39.2999 39.7864 39.2437C39.1752 39.2367 38.9012 39.4685 38.7116 40.0234C37.9037 42.3556 37.0608 44.6738 36.2178 46.992C35.8385 48.0387 35.8666 48.0948 37.0186 48.0948C43.088 48.1019 49.1644 48.1019 55.2338 48.1019C55.5358 48.1019 55.8449 48.1089 56.147 48.1089C56.73 48.1089 56.8986 48.3477 56.6176 48.8816C55.9854 50.0829 55.3883 51.3052 54.742 52.4994C52.8945 55.9345 50.0495 57.5501 46.1227 57.4658C41.9078 57.3745 37.693 57.4799 33.4781 57.4518C32.6492 57.4448 32.2558 57.7187 31.9819 58.5055C29.9517 64.3712 27.8865 70.2298 25.8282 76.0884C25.758 76.3062 25.5964 76.5169 25.7158 76.8612Z" fill="white"/>
<path d="M64.977 33.7011C69.803 30.252 73.6667 26.0442 75.7319 20.3963C76.1815 19.167 76.1675 19.1389 74.889 19.1389C63.0171 19.1389 51.1524 19.1389 39.2806 19.1389C37.9248 19.1389 36.569 19.188 35.2132 19.3496C29.2844 20.038 24.8026 22.8971 21.9365 28.1797C18.7754 34.0032 19.541 40.9788 23.8191 45.5168C24.4794 46.2192 24.5146 46.2122 24.8447 45.299C25.9757 42.2011 27.0997 39.0961 28.2306 35.9982C29.5443 32.4016 32.0029 30.1326 35.8384 29.4582C37.1802 29.2194 38.543 29.1561 39.8987 29.1491C48.4689 29.121 57.0391 29.1351 65.6093 29.1351C66.7192 29.1351 66.8175 29.2896 66.4874 30.3644C66.1291 31.5445 65.5039 32.5912 64.977 33.7011Z" fill="white"/>
</svg>
