<svg width="13" height="11" viewBox="0 0 13 11" fill="none" xmlns="http://www.w3.org/2000/svg">
<path d="M9.01552 0C8.01365 0 7.00636 0.244444 6.48646 0.716854C5.96657 0.244444 4.95928 0 3.96012 0C2.52229 0 1.07093 0.502622 1.07093 1.46392V9.40974C1.07016 9.50405 1.09774 9.59635 1.14998 9.67437C1.20222 9.75238 1.27665 9.8124 1.36337 9.84644C1.41825 9.86951 1.47727 9.88074 1.53666 9.8794C1.6015 9.881 1.66593 9.86861 1.72568 9.84304C1.78543 9.81747 1.83915 9.77931 1.88326 9.73109C2.1405 9.45643 2.89867 9.15431 3.96824 9.15431C5.03781 9.15431 5.79598 9.45368 6.05051 9.73109C6.10548 9.7916 6.17532 9.83621 6.25287 9.86034C6.33043 9.88448 6.41291 9.88726 6.49188 9.86842C6.57172 9.88579 6.65461 9.8823 6.73276 9.85828C6.81091 9.83426 6.88176 9.79049 6.93866 9.73109C7.19319 9.45643 7.95407 9.15431 9.02364 9.15431C10.0932 9.15431 10.8487 9.45368 11.1059 9.73109C11.1697 9.80052 11.2528 9.84871 11.3442 9.86931C11.4355 9.8899 11.5309 9.88193 11.6177 9.84644C11.7029 9.8111 11.7756 9.75052 11.8263 9.67261C11.877 9.5947 11.9034 9.50309 11.902 9.40974V1.46392C11.902 0.502622 10.4506 0 9.01552 0ZM3.96012 8.42372C3.21142 8.39912 2.46804 8.55935 1.7939 8.89064V1.47491C1.7939 1.21673 2.60623 0.74432 3.96012 0.74432C5.314 0.74432 6.12633 1.21673 6.12633 1.47491V8.89064C5.45198 8.55998 4.70875 8.39978 3.96012 8.42372ZM11.1817 8.89064C10.5073 8.56018 9.76414 8.39999 9.01552 8.42372C8.26675 8.39823 7.52316 8.55851 6.84931 8.89064V1.47491C6.84931 1.21673 7.66164 0.74432 9.01552 0.74432C10.3694 0.74432 11.1817 1.21673 11.1817 1.47491V8.89064Z" fill="black"/>
<path d="M12.1863 10.9863H0.800146C0.587057 10.9827 0.383899 10.8943 0.234473 10.7401C0.0850478 10.586 0.00132432 10.3785 0.00135393 10.1623V1.83196C-0.00298629 1.78114 0.00313536 1.72996 0.0193306 1.68167C0.0355258 1.63338 0.0614407 1.58903 0.095431 1.55144C0.129421 1.51384 0.170745 1.48383 0.216779 1.46329C0.262813 1.44276 0.312552 1.43216 0.362841 1.43216C0.41313 1.43216 0.462869 1.44276 0.508903 1.46329C0.554937 1.48383 0.596261 1.51384 0.630251 1.55144C0.664241 1.58903 0.690156 1.63338 0.706351 1.68167C0.722547 1.72996 0.728668 1.78114 0.724328 1.83196V10.176C0.723948 10.1862 0.725649 10.1964 0.729325 10.2059C0.733001 10.2154 0.738572 10.224 0.74569 10.2313C0.752807 10.2385 0.761317 10.2441 0.770688 10.2479C0.780059 10.2516 0.790087 10.2533 0.800146 10.2529H12.1999C12.22 10.2529 12.2392 10.2448 12.2535 10.2304C12.2677 10.216 12.2757 10.1964 12.2757 10.176V1.83196C12.2713 1.78114 12.2775 1.72996 12.2936 1.68167C12.3098 1.63338 12.3358 1.58903 12.3697 1.55144C12.4037 1.51384 12.4451 1.48383 12.4911 1.46329C12.5371 1.44276 12.5869 1.43216 12.6372 1.43216C12.6874 1.43216 12.7372 1.44276 12.7832 1.46329C12.8293 1.48383 12.8706 1.51384 12.9046 1.55144C12.9386 1.58903 12.9645 1.63338 12.9807 1.68167C12.9969 1.72996 13.003 1.78114 12.9986 1.83196V10.176C12.9986 10.3946 12.9131 10.6041 12.7607 10.7587C12.6084 10.9132 12.4018 11 12.1863 11" fill="black"/>
</svg>
