<svg width="23" height="30" viewBox="0 0 23 30" fill="none" xmlns="http://www.w3.org/2000/svg">
<path fill-rule="evenodd" clip-rule="evenodd" d="M19.8358 2.10991C25.6179 9.1007 22.2768 19.7658 13.5746 22.2343V24.5581C23.1393 25.3018 21.8315 30 11.3525 30C0.902135 30 -0.453675 25.303 9.13164 24.5581V22.6746C6.62295 22.4766 4.16122 21.531 2.11083 19.8351C1.50905 20.2076 0.933346 20.0044 0.460513 19.5316C0.460513 19.4639 0.227358 19.2568 0.227358 18.7878C0.227358 18.2316 0.588152 17.9243 0.588152 17.9151L2.146 16.3573C-1.634 11.5106 -0.271518 4.43641 5.06239 1.35732C8.61298 -0.692868 13.0899 -0.412835 16.3594 2.14537L17.9159 0.588817C18.9462 -0.442813 20.6043 0.873794 19.8358 2.10991ZM19.3292 11.0624C18.8029 11.349 18.1647 11.1288 18.0683 11.2825C17.7596 11.7736 18.3301 13.3835 16.5196 14.1494C16.2187 14.2771 16.0767 15.2032 14.528 14.9713C13.9992 14.8919 12.8816 14.7173 12.5442 15.2032C11.9255 16.0928 11.4723 16.7454 11.9321 17.2742C12.4531 17.8734 12.5026 18.5207 12.2616 19.129C13.1382 18.9206 13.977 18.5859 14.7507 18.1391V18.1378C17.2738 16.6789 19.0167 14.0895 19.3292 11.0624ZM11.437 20.1646C10.3325 20.3665 8.67958 20.218 7.50333 19.9028C6.14738 19.5394 4.92949 18.9168 3.88872 18.1027L2.75422 19.2372C7.38485 22.9912 14.1516 22.6667 18.4094 18.4088C22.6676 14.1506 22.9903 7.38521 19.2378 2.75491L18.102 3.89071L18.8914 5.06169H18.8927C22.4916 11.2956 18.5996 19.2243 11.437 20.1646ZM11.1362 19.3232C11.5048 18.8673 11.7197 18.358 11.2729 17.8435C10.365 16.7975 10.9916 15.9053 11.8356 14.6926C12.4322 13.833 13.7295 13.9697 14.6543 14.1078C15.7003 14.2641 15.5062 13.6324 16.1822 13.3471C17.8546 12.6399 16.246 10.3291 18.416 10.3513C18.73 10.3539 19.0947 10.3578 19.3565 9.48377C19.2575 8.06531 18.8329 6.70416 18.1373 5.5007L18.0644 5.37566C16.784 6.30175 15.303 5.41994 15.2678 5.48637C13.9991 7.88695 12.2133 4.44174 11.067 4.00799C10.8912 3.94156 11.1061 4.18644 10.4587 4.73481C10.2855 4.882 10.1135 5.02788 10.1917 5.34179C10.378 6.08165 10.7909 6.9934 11.2507 7.57174C11.4474 7.81923 12.3969 7.4988 12.5649 8.32201C12.7577 9.26764 12.3409 9.76391 12.1208 10.0244L12.1195 10.0231C12.04 11.0769 11.4708 10.9909 10.7726 11.7725C9.73191 12.9382 9.92468 11.9235 9.36328 12.6439L9.36458 12.6452L9.09365 12.9513L9.09495 12.9526C8.41765 13.5713 8.25352 14.5677 8.17927 14.7592H8.18057C7.97346 15.3245 6.78164 15.5212 6.301 15.1617L6.2997 15.163C5.99621 14.9363 5.19125 14.9324 5.50125 14.0258C5.59895 13.738 5.83471 13.6247 6.06395 13.5139C6.11996 13.4866 6.12648 13.6299 6.14992 13.5452C6.43257 12.537 5.81127 11.6539 5.19125 10.8711C4.70411 10.255 3.81186 10.6718 3.51096 9.58546C3.50835 9.57895 3.44583 9.50861 3.36638 9.40962L3.36507 9.41092C3.10587 9.08659 2.77633 8.67239 2.82452 8.19042C2.84275 7.93383 2.87531 7.33986 3.11629 6.96603V6.96342C3.27389 6.70682 3.48101 6.29392 3.83921 6.22226C4.55559 6.07638 5.23033 6.88006 5.33714 7.009L5.33844 7.0077C5.8894 7.66157 6.6579 7.04678 7.15678 6.72375C7.57879 6.45152 7.39905 5.2597 6.35573 4.52244C6.23329 4.43517 6.40132 4.65921 6.31665 4.71521C5.18605 5.44854 4.70148 4.76992 2.53265 4.83375C-1.99628 11.3334 3.26872 20.1881 11.1362 19.3232ZM13.2241 14.8906L12.7578 14.4985C12.7813 14.7356 12.9897 14.9088 13.2241 14.8906ZM3.22194 3.96109C4.27571 3.98975 4.64691 4.18643 5.47923 4.18252C5.70979 4.18122 6.30376 3.42052 6.85602 3.80999C8.57536 5.02395 8.41257 6.9413 7.79515 7.34524C6.88726 7.93918 5.74496 8.74937 4.67165 7.57318L4.67295 7.57188C3.90575 6.66793 3.99565 7.20065 3.86017 7.42209H3.85886C3.71949 7.65133 3.71558 8.05771 3.69214 8.28176C3.68042 8.4081 3.88622 8.66469 4.04513 8.86399L4.04383 8.8653C4.5466 9.46968 4.19883 9.47358 4.76151 9.6416C5.1093 9.74581 5.50267 9.86304 5.87387 10.3319C6.67362 11.3414 7.3653 12.4408 6.99017 13.7812C6.91332 14.056 6.70491 14.1719 6.48479 14.2787C6.78828 14.4103 6.84818 14.5783 7.37183 14.4051C7.4578 14.0638 7.75607 12.9944 8.50633 12.3093L8.50764 12.3106C8.55062 12.2715 8.61184 12.1921 8.67436 12.1113L8.67566 12.1126C8.93096 11.7466 9.26961 11.3988 9.87008 11.5147C9.89744 11.5199 9.9782 11.3571 10.1241 11.1956C10.8001 10.4388 11.2351 10.4805 11.2547 9.88263C11.269 9.43324 11.8838 9.34077 11.7119 8.49804C11.6936 8.40947 11.648 8.57489 11.5543 8.56317C11.2208 8.51889 10.8483 8.46939 10.5683 8.11641C10.0277 7.43647 9.564 6.42312 9.34515 5.55561C9.03384 4.31951 9.94693 4.28823 10.1566 3.74507C10.3312 3.29178 10.4966 2.86066 11.3745 3.19411C12.8972 3.76985 13.8832 6.24075 14.4967 5.08151C15.1258 3.89229 16.3333 5.52047 17.5785 4.64516C14.097 -0.0988479 7.12965 -0.408848 3.22194 3.96109ZM12.1221 10.0232L12.1247 9.9568C12.1234 9.97894 12.1221 10.0011 12.1208 10.0219L12.1221 10.0232ZM6.32703 14.3034C6.3101 14.3516 6.33224 14.319 6.3609 14.2865C6.34657 14.28 6.33615 14.2774 6.32703 14.3034ZM12.7003 22.4509C11.8119 22.6359 10.9106 22.7232 10.0053 22.7154V26.6674L10.1512 26.8133C10.4443 26.8133 12.5661 26.8628 12.6586 26.7716C12.6846 26.7456 12.7016 26.7091 12.7016 26.6687L12.7003 22.4509ZM13.5743 25.4338C13.5743 26.1449 13.8061 27.6859 12.5544 27.6859H10.1499C9.58982 27.6859 9.13002 27.2261 9.13002 26.666L9.13132 25.4338C7.50445 25.564 6.09249 25.8336 5.07123 26.1944C2.70059 27.0294 3.30237 27.8005 5.64826 28.4635C8.78477 29.3492 13.9218 29.3492 17.0586 28.4635C19.4045 27.8005 20.0063 27.0294 17.6357 26.1944C16.6132 25.8336 15.2013 25.564 13.5743 25.4338ZM19.1466 1.46031L19.0424 1.20501L19.0437 1.20371C18.9056 1.06564 18.6737 1.06564 18.5344 1.20501L17.0313 2.70944L17.5406 3.21872L19.045 1.71559L19.0463 1.7169C19.1127 1.64656 19.1466 1.55409 19.1466 1.46031ZM2.70979 17.0295L1.20536 18.5339L1.20406 18.5326C0.870609 18.8686 1.3786 19.378 1.71464 19.0419L3.21777 17.5374L2.70979 17.0295Z" fill="white"/>
</svg>
