<svg width="13" height="8" viewBox="0 0 13 8" fill="none" xmlns="http://www.w3.org/2000/svg">
<path d="M0.133238 2.81646L2.28455 3.67982V6.26147C2.28455 6.33904 2.32517 6.41155 2.39017 6.44865C3.65268 7.18723 4.92494 7.55652 6.19721 7.55652C7.46947 7.55652 8.74011 7.18723 10.0042 6.44865C10.0692 6.40986 10.1099 6.33904 10.1099 6.26147V3.67982L11.9785 2.93113V4.83828C11.6779 4.93102 11.4552 5.21937 11.4552 5.56168C11.4552 5.76909 11.5365 5.95626 11.6665 6.09453L11.3756 7.74538C11.3643 7.80777 11.3805 7.87353 11.4211 7.92243C11.4601 7.97133 11.5186 8 11.5804 8H12.7925C12.8543 8 12.9127 7.97133 12.9517 7.92243C12.9907 7.87353 13.007 7.80945 12.9972 7.74538L12.7064 6.09285C12.8364 5.95626 12.9176 5.76909 12.9176 5.56168C12.9176 5.21937 12.6966 4.93271 12.3944 4.83828V2.6158C12.3944 2.57533 12.3814 2.53992 12.3619 2.50788C12.357 2.49945 12.3538 2.49439 12.3489 2.48764C12.3262 2.45729 12.2985 2.432 12.2644 2.41851L12.2628 2.41682L6.27195 0.0139116C6.22321 -0.00463719 6.17121 -0.00463719 6.12246 0.0139116L0.133238 2.41513C0.0519954 2.44717 0 2.52643 0 2.6158C0 2.70517 0.0519954 2.78442 0.133238 2.81646ZM11.829 7.56663L12.0516 6.30363C12.0954 6.31206 12.1409 6.31712 12.1864 6.31712C12.2336 6.31712 12.2774 6.31206 12.3213 6.30363L12.5439 7.56663H11.829ZM12.5 5.55999C12.5 5.74042 12.3587 5.88713 12.1848 5.88713C12.0109 5.88713 11.8696 5.74042 11.8696 5.55999C11.8696 5.37956 12.0109 5.23286 12.1848 5.23286C12.3587 5.23286 12.5 5.37956 12.5 5.55999ZM9.6939 6.135C7.37198 7.45197 5.02081 7.45197 2.69889 6.135V3.84676L6.12246 5.21937C6.14684 5.22949 6.17121 5.23455 6.19721 5.23455C6.22321 5.23455 6.24758 5.22949 6.27195 5.21937L9.6939 3.84676V6.135ZM6.19558 0.445592L11.0718 2.40164H6.19558C6.08022 2.40164 5.9876 2.49776 5.9876 2.61748C5.9876 2.73721 6.08022 2.83332 6.19558 2.83332H11.0718L6.19558 4.78938L0.783181 2.6158L6.19558 0.445592Z" fill="black"/>
</svg>
