<svg width="53" height="54" viewBox="0 0 53 54" fill="none" xmlns="http://www.w3.org/2000/svg">
<path d="M43.7169 13.9226C43.8988 13.9226 44.0798 13.8979 44.2598 13.8689C47.4328 17.5175 49.1814 22.1227 49.1814 27.004C49.1814 29.6169 48.6868 32.1592 47.7096 34.5615C47.355 35.4347 47.7749 36.4306 48.6481 36.7852C48.8588 36.8705 49.0761 36.9105 49.2907 36.9105C49.9639 36.9105 50.6025 36.5093 50.8718 35.8467C52.0143 33.0351 52.5942 30.0595 52.5942 27.004C52.5942 21.3295 50.5763 15.9721 46.9096 11.7161C47.3788 10.4728 47.0945 9.01525 46.0725 8.04014C40.6373 2.85558 33.6144 0 26.2968 0C18.9799 0 11.9576 2.85491 6.52237 8.03948C5.50002 9.01483 5.21548 10.4729 5.68499 11.7164C2.01837 15.9723 0 21.3297 0 27.004C0 30.0609 0.579248 33.0364 1.72175 35.8467C1.99171 36.5093 2.62961 36.9105 3.30351 36.9105C3.51748 36.9105 3.73478 36.8705 3.94542 36.7852C4.81862 36.4306 5.23856 35.4347 4.88394 34.5615C3.90742 32.1606 3.41283 29.6183 3.41283 27.004C3.41283 22.1211 5.16315 17.5144 8.33735 13.8653C9.35395 14.0275 10.4309 13.7427 11.2337 12.9787C15.3931 9.01067 20.7429 6.82566 26.2968 6.82566C31.8506 6.82566 37.2018 9.01133 41.3612 12.9794C42.0224 13.61 42.8703 13.9226 43.7169 13.9226Z" fill="#223A93"/>
<path d="M15.5197 36.0933C15.3437 35.1068 14.7945 34.2469 13.9719 33.6737C13.1494 33.1004 12.1529 32.8818 11.167 33.0578L9.95786 33.2724C7.92083 33.6363 6.55903 35.5894 6.92231 37.6264L9.29062 50.9045C9.4666 51.891 10.0158 52.7509 10.8384 53.3241C11.4756 53.768 12.2169 54 12.9774 54C13.1987 54 13.422 53.98 13.6446 53.94L14.8518 53.7254H14.8525C15.8397 53.5494 16.6989 52.9988 17.2721 52.1776C17.8454 51.3551 18.0647 50.3579 17.888 49.3714L15.5197 36.0933Z" fill="#223A93"/>
<path d="M4.39135 37.4984C3.49415 37.6584 2.71293 38.1583 2.19167 38.9062C1.66975 39.6541 1.47111 40.5607 1.63109 41.4579L3.00689 49.1727C3.16686 50.0699 3.66679 50.8511 4.41535 51.3724C4.99393 51.7763 5.66783 51.987 6.35906 51.987C6.55969 51.987 6.761 51.9683 6.9623 51.9336C7.3929 51.8577 7.76818 51.619 8.01948 51.2617C8.27211 50.9005 8.36876 50.4632 8.29077 50.0326L6.29173 38.8209C6.13242 37.9344 5.28322 37.3451 4.39135 37.4984Z" fill="#223A93"/>
<path d="M42.6344 33.2724L41.4279 33.0578C40.4413 32.8805 39.4455 33.1004 38.6216 33.6737C37.8004 34.2469 37.2498 35.1068 37.0738 36.0933L34.7062 49.3714C34.3422 51.4084 35.7034 53.3614 37.7417 53.7254L38.9496 53.94C39.1722 53.98 39.3962 54 39.6175 54C40.3773 54 41.1186 53.768 41.7558 53.3241C42.577 52.7509 43.1276 51.891 43.3036 50.9045L45.6712 37.6264C46.0352 35.5894 44.674 33.6363 42.6344 33.2724Z" fill="#223A93"/>
<path d="M48.2029 37.4984C47.3057 37.3411 46.4618 37.9344 46.3018 38.8236L44.3034 50.0299C44.2261 50.4632 44.3221 50.9005 44.5741 51.2617C44.8247 51.619 45.1993 51.8563 45.6272 51.9323C45.8299 51.9683 46.0325 51.987 46.2338 51.987C46.9257 51.987 47.5989 51.7763 48.1789 51.3724C48.9268 50.8511 49.4267 50.0699 49.5867 49.1727L50.9625 41.4579C51.1224 40.5607 50.9238 39.6541 50.4025 38.9062C49.8813 38.1583 49.1001 37.6584 48.2029 37.4984Z" fill="#223A93"/>
</svg>
