<svg width="25" height="28" viewBox="0 0 25 28" fill="none" xmlns="http://www.w3.org/2000/svg">
<path d="M10.29 22.3623C10.2361 22.4455 10.1466 22.4911 10.0558 22.4911C10.0019 22.4911 9.94791 22.475 9.90054 22.4428C9.38339 22.0927 8.5373 21.6005 7.44383 21.241C7.29645 21.1927 7.21487 21.0304 7.26224 20.8802C7.30961 20.7299 7.46883 20.6468 7.61621 20.6951C8.77022 21.0747 9.66498 21.5951 10.2111 21.9653C10.34 22.0525 10.3756 22.2309 10.29 22.3623ZM4.81069 12.5036C6.15943 12.5439 7.48713 12.8819 8.75564 13.511C8.79511 13.5311 8.83722 13.5405 8.87801 13.5405C8.98196 13.5405 9.08329 13.4814 9.13066 13.3795C9.19908 13.2373 9.13987 13.0656 9.00038 12.9959C7.65952 12.3319 6.25553 11.9738 4.82637 11.9322C4.67373 11.9282 4.54215 12.0516 4.53688 12.2099C4.53293 12.3681 4.65541 12.4996 4.81069 12.5036ZM4.81069 20.7728C5.18702 20.7836 5.5673 20.8198 5.94233 20.8775C5.9568 20.8801 5.97128 20.8801 5.98575 20.8801C6.1226 20.8801 6.24234 20.7782 6.2634 20.6374C6.28708 20.4804 6.18181 20.3342 6.02786 20.3101C5.63047 20.2484 5.22651 20.2108 4.82649 20.1988C4.67385 20.1934 4.54226 20.3181 4.537 20.4764C4.53305 20.636 4.65541 20.7688 4.81069 20.7728ZM7.26211 14.6793C7.21474 14.8295 7.295 14.9918 7.44369 15.0401C8.53717 15.3996 9.38326 15.8932 9.9004 16.2419C9.94777 16.2741 10.0017 16.2902 10.0557 16.2902C10.1465 16.2902 10.2359 16.2446 10.2899 16.1614C10.3754 16.03 10.3399 15.8516 10.2109 15.7644C9.66355 15.3942 8.7701 14.8738 7.61609 14.4942C7.4674 14.4446 7.30948 14.5277 7.26211 14.6793ZM4.81069 18.706C7.19369 18.7771 9.02142 19.7831 9.90028 20.376C9.94765 20.4082 10.0016 20.4243 10.0556 20.4243C10.1463 20.4243 10.2358 20.3787 10.2898 20.2955C10.3753 20.1641 10.3398 19.9857 10.2108 19.8985C9.28315 19.2708 7.35015 18.2071 4.82782 18.132C4.67387 18.128 4.5436 18.2514 4.53833 18.4096C4.53307 18.5693 4.65542 18.7007 4.81069 18.706ZM4.81069 16.6391C5.69363 16.6659 6.57919 16.8228 7.44239 17.1072C7.47134 17.1166 7.50029 17.1206 7.52924 17.1206C7.64767 17.1206 7.7582 17.0428 7.79636 16.9221C7.84373 16.7719 7.76346 16.6096 7.61477 16.5613C6.70027 16.2595 5.76205 16.0932 4.82649 16.065C4.67254 16.061 4.54227 16.1844 4.537 16.3427C4.53305 16.5023 4.65541 16.6337 4.81069 16.6391ZM9.20164 17.2306C9.06347 17.1582 8.89373 17.2145 8.82267 17.3554C8.75162 17.4962 8.80688 17.6692 8.94505 17.7417C9.27927 17.916 9.60034 18.1065 9.90034 18.309C9.94771 18.3412 10.0017 18.3573 10.0556 18.3573C10.1464 18.3573 10.2359 18.3117 10.2898 18.2285C10.3754 18.0971 10.3398 17.9187 10.2109 17.8315C9.89376 17.6169 9.5543 17.4144 9.20164 17.2306ZM4.81069 14.5721C5.18702 14.5829 5.5673 14.6191 5.94233 14.6768C5.9568 14.6794 5.97128 14.6794 5.98575 14.6794C6.1226 14.6794 6.24234 14.5775 6.2634 14.4367C6.28708 14.2797 6.18181 14.1335 6.02786 14.1094C5.63047 14.0477 5.22651 14.0101 4.82649 13.998C4.67385 13.994 4.54226 14.1174 4.537 14.2757C4.53305 14.4353 4.65541 14.5668 4.81069 14.5721ZM18.9089 18.7558C18.9194 18.7558 18.9286 18.7558 18.9392 18.7545C19.1707 18.729 19.4063 18.7129 19.6392 18.7062C19.7945 18.7022 19.9168 18.5694 19.9116 18.4111C19.9076 18.2528 19.776 18.1294 19.6221 18.1335C19.376 18.1402 19.126 18.1576 18.8799 18.1844C18.726 18.2005 18.6128 18.3427 18.6299 18.4996C18.6444 18.6459 18.7668 18.7558 18.9089 18.7558ZM15.2193 21.3808C14.8772 21.5605 14.5469 21.7577 14.2376 21.9656C14.1087 22.0528 14.0732 22.2312 14.1587 22.3626C14.2126 22.4458 14.3021 22.4914 14.3929 22.4914C14.4469 22.4914 14.5008 22.4753 14.5482 22.4431C14.839 22.2459 15.1522 22.0595 15.4759 21.8891C15.614 21.8167 15.668 21.6437 15.5969 21.5028C15.5272 21.3633 15.3574 21.3084 15.2193 21.3808ZM14.1587 20.2956C14.2127 20.3788 14.3021 20.4244 14.3929 20.4244C14.4469 20.4244 14.5008 20.4083 14.5482 20.3761C15.1561 19.9657 16.1496 19.401 17.4391 19.0429C17.5891 19.0013 17.6773 18.843 17.6365 18.6901C17.5957 18.5372 17.4404 18.4473 17.2905 18.4889C15.9298 18.8672 14.8785 19.464 14.2377 19.8986C14.1087 19.9858 14.0732 20.1642 14.1587 20.2956ZM14.1587 18.2287C14.2127 18.3118 14.3021 18.3575 14.3929 18.3575C14.4469 18.3575 14.5008 18.3414 14.5482 18.3092C14.9285 18.0516 15.5496 17.6774 16.3443 17.3515C16.4891 17.2924 16.5588 17.1248 16.5009 16.9786C16.443 16.831 16.2785 16.7599 16.1351 16.819C15.2956 17.1623 14.6403 17.5594 14.239 17.8317C14.1087 17.9188 14.0732 18.0973 14.1587 18.2287ZM16.6246 21.0669C16.6628 21.1876 16.7733 21.2654 16.8917 21.2654C16.9207 21.2654 16.9496 21.2614 16.9786 21.2507C17.851 20.9609 18.7458 20.8 19.6379 20.7732C19.7932 20.7691 19.9156 20.6363 19.9103 20.4781C19.9064 20.3198 19.7761 20.1951 19.6208 20.2004C18.6747 20.2286 17.7273 20.3989 16.8036 20.7061C16.6562 20.7544 16.5759 20.9167 16.6246 21.0669ZM24.8143 6.23198L22.4813 10.3511C22.9182 10.4008 23.3603 10.4611 23.8024 10.5403C24.1748 10.6073 24.4459 10.9359 24.4459 11.3222V25.1792C24.4459 25.4166 24.3472 25.6326 24.1696 25.7855C23.9919 25.9384 23.7669 26.0014 23.5367 25.9612C17.2916 24.8801 13.6007 27.1482 12.6177 27.8686C12.498 27.9571 12.3611 28 12.223 28C12.0861 28 11.9479 27.9557 11.8282 27.8686C10.8452 27.1482 7.15427 24.8801 0.909252 25.9612C0.678979 26.0014 0.453954 25.9384 0.276329 25.7855C0.0986897 25.6326 0 25.4166 0 25.1792L0.00263203 11.3233C0.00263203 10.937 0.273699 10.6083 0.6461 10.5413C1.14876 10.4514 1.65011 10.383 2.14485 10.3307V9.25899C2.14485 8.82709 2.48959 8.47028 2.91329 8.46493C4.00414 8.45151 7.55184 8.56016 10.2137 10.3455C10.0992 9.84918 9.86498 9.50848 9.60445 9.13427C9.20706 8.56557 8.75705 7.92036 8.75705 6.64479C8.75705 4.59661 10.3124 2.93082 12.2243 2.93082C14.1363 2.93082 15.6916 4.59675 15.6916 6.64479C15.6916 7.92036 15.2416 8.56557 14.8442 9.13427C14.5824 9.50848 14.3494 9.84918 14.235 10.3468C16.2627 8.99074 18.8193 8.60578 20.3328 8.50249L22.4184 4.82046C22.6026 4.49586 22.9013 4.26247 23.2593 4.16454C23.6172 4.06662 23.9896 4.11625 24.3093 4.30404C24.6277 4.49182 24.8567 4.7963 24.9528 5.16114C25.0475 5.52598 24.9988 5.90692 24.8146 6.23152L24.8143 6.23198ZM17.6574 16.0464L18.9825 15.0685L17.8259 14.3872L17.6574 16.0464ZM23.5221 7.36684L22.101 6.52986L17.9745 13.8146L19.3956 14.6516L23.5221 7.36684ZM19.9919 9.10653C18.4063 9.25139 15.9731 9.71012 14.1602 11.1037V12.7925C14.1602 13.8132 13.4404 14.6596 12.5061 14.8031V26.8508C15.051 23.4573 20.4327 23.3391 21.5238 23.3525C21.5857 23.3512 21.6344 23.3337 21.6778 23.2895C21.7225 23.2452 21.7423 23.1969 21.7423 23.1325V11.6576L19.7435 15.1851C19.7237 15.22 19.6974 15.2508 19.6645 15.2736L17.8947 16.5787C17.8039 16.6458 17.7 16.6793 17.5947 16.6793C17.5065 16.6793 17.4184 16.6552 17.3381 16.6082C17.1605 16.5036 17.0644 16.3105 17.0855 16.1025L17.3091 13.888C17.3131 13.8478 17.3249 13.8089 17.346 13.774L19.9919 9.10653ZM10.8519 11.3304V12.5041H13.5967V11.3304H10.8519ZM10.8795 13.0782C11.0045 13.7461 11.5598 14.2518 12.2243 14.2518C12.8888 14.2518 13.4441 13.7461 13.5691 13.0782H10.8795ZM10.0624 8.80209C10.415 9.30778 10.7756 9.83222 10.8387 10.7577H11.9427V8.02142H11.9651L10.6663 6.50036C10.5637 6.38098 10.5768 6.19991 10.6939 6.09528C10.8111 5.99066 10.9887 6.00407 11.0913 6.12345L12.2256 7.45136L13.3599 6.12345C13.4625 6.00407 13.6402 5.992 13.7573 6.09528C13.8744 6.1999 13.8862 6.38098 13.7849 6.50036L12.4861 8.02142H12.5085V10.7577H13.6125C13.6757 9.83356 14.0362 9.30774 14.3889 8.80209C14.7705 8.25481 15.1323 7.73841 15.1323 6.64527C15.1323 4.91362 13.8296 3.50392 12.2269 3.50392C10.6255 3.50392 9.32149 4.91231 9.32149 6.64527C9.31886 7.73844 9.67945 8.25485 10.0624 8.80209ZM2.70671 23.1326C2.70671 23.1956 2.72645 23.2439 2.77119 23.2895C2.81593 23.3338 2.8633 23.3526 2.92514 23.3526C4.01599 23.3392 9.40058 23.4558 11.9428 26.8495V14.8032C11.0086 14.6596 10.2888 13.8133 10.2888 12.7925V11.0984C7.66498 9.08511 3.70423 9.02879 2.92002 9.03951C2.80291 9.04085 2.70686 9.14011 2.70686 9.25948L2.70671 23.1326ZM11.1336 26.7607C8.63212 24.0124 3.92277 23.9144 2.93308 23.9265C2.71991 23.9319 2.5278 23.8501 2.37649 23.6971C2.22516 23.5442 2.1449 23.3498 2.1449 23.1325V10.9075C1.68303 10.9572 1.21459 11.0216 0.743498 11.1047C0.63823 11.1235 0.564542 11.2134 0.564542 11.322V25.179C0.564542 25.2488 0.589543 25.3024 0.64086 25.348C0.693495 25.3936 0.74876 25.4084 0.817186 25.3963C5.91622 24.5151 9.38999 25.8057 11.1336 26.7607ZM23.7051 11.1061C23.2354 11.0216 22.7669 10.9586 22.3037 10.9076V23.1312C22.3037 23.3485 22.2235 23.543 22.0721 23.6959C21.9208 23.8488 21.7261 23.9279 21.5156 23.9252C20.5247 23.9132 15.8152 24.0111 13.3151 26.7594C15.0586 25.8058 18.5323 24.514 23.6314 25.3966C23.6985 25.4087 23.7551 25.3926 23.8077 25.3483C23.8603 25.3027 23.884 25.2504 23.884 25.1793V11.3234C23.884 11.2134 23.8104 11.1249 23.7051 11.1061ZM24.4078 5.31029C24.3512 5.09299 24.2157 4.91327 24.0262 4.80192C23.838 4.69059 23.617 4.66108 23.4038 4.7201C23.1906 4.77777 23.0143 4.91593 22.9051 5.10907L22.3813 6.03324L23.8025 6.87022L24.3262 5.94606C24.4354 5.75291 24.4644 5.52758 24.4078 5.31029ZM15.731 3.35733C15.8034 3.35733 15.8744 3.32916 15.9297 3.27283L16.835 2.35C16.9455 2.23867 16.9455 2.05625 16.835 1.94492C16.7258 1.83225 16.5468 1.83225 16.4376 1.94492L15.5323 2.86775C15.4218 2.98041 15.4218 3.16149 15.5323 3.27283C15.5862 3.3305 15.6586 3.35733 15.731 3.35733ZM12.2243 1.87785C12.3796 1.87785 12.5059 1.74909 12.5059 1.59081V0.287043C12.5059 0.128767 12.3796 0 12.2243 0C12.069 0 11.9427 0.128767 11.9427 0.287043V1.59081C11.9427 1.74909 12.069 1.87785 12.2243 1.87785ZM17.1839 6.93202H18.4629C18.6181 6.93202 18.7445 6.80326 18.7445 6.64498C18.7445 6.4867 18.6181 6.35794 18.4629 6.35794H17.1839C17.0286 6.35794 16.9023 6.4867 16.9023 6.64498C16.9023 6.8046 17.0286 6.93202 17.1839 6.93202ZM8.51884 3.27437C8.5741 3.3307 8.64516 3.35887 8.71753 3.35887C8.7899 3.35887 8.86096 3.3307 8.91622 3.27437C9.02544 3.16304 9.02544 2.98062 8.91622 2.86929L8.01091 1.94646C7.90038 1.83513 7.72274 1.83379 7.61352 1.94646C7.50431 2.05779 7.50431 2.24021 7.61352 2.35154L8.51884 3.27437ZM5.98583 6.93202H7.26485C7.42012 6.93202 7.54644 6.80326 7.54644 6.64498C7.54644 6.4867 7.42012 6.35794 7.26485 6.35794H5.98583C5.83056 6.35794 5.70423 6.4867 5.70423 6.64498C5.70423 6.8046 5.83056 6.93202 5.98583 6.93202Z" fill="#3B82F6"/>
</svg>
