<svg width="9" height="14" viewBox="0 0 9 14" fill="none" xmlns="http://www.w3.org/2000/svg">
<path d="M4.50085 2.86814C4.02433 2.86814 3.59259 3.06791 3.28067 3.39101C2.9682 3.71409 2.775 4.15995 2.775 4.65267C2.775 5.1454 2.96819 5.59181 3.28067 5.91434C3.59313 6.23742 4.02433 6.4372 4.50085 6.4372C4.97737 6.4372 5.4091 6.23744 5.72103 5.91434C6.03349 5.59125 6.2267 5.1454 6.2267 4.65267C6.2267 4.15995 6.03351 3.71354 5.72103 3.39101C5.40856 3.06792 4.97737 2.86814 4.50085 2.86814ZM6.3535 12.2445C6.3535 12.0631 6.49543 11.9164 6.67083 11.9164C6.84623 11.9164 6.98815 12.0631 6.98815 12.2445C6.98815 12.7584 6.68863 13.2121 6.20509 13.5307C5.76473 13.8203 5.16138 14 4.50082 14C3.84026 14 3.23747 13.8203 2.79655 13.5307C2.31301 13.2121 2.01349 12.7584 2.01349 12.2445C2.01349 12.0631 2.15541 11.9164 2.33082 11.9164C2.50622 11.9164 2.64814 12.0631 2.64814 12.2445C2.64814 12.519 2.83487 12.7785 3.13655 12.9772C3.48085 13.2037 3.96278 13.3438 4.50136 13.3438C5.0394 13.3438 5.52133 13.2037 5.86617 12.9772C6.16785 12.7785 6.35458 12.519 6.35458 12.2445H6.3535ZM4.50085 0.656231C3.43338 0.656231 2.4668 1.10376 1.76802 1.82638C1.06861 2.54957 0.636337 3.54903 0.636337 4.65213C0.636337 6.33006 1.75075 7.77872 2.77068 9.10452C3.00113 9.40418 3.2267 9.69713 3.4458 10.0018C3.81386 10.5141 4.23425 11.1848 4.50085 11.6229C4.76798 11.1848 5.18785 10.5136 5.55589 10.0018C5.77499 9.69713 6.00058 9.40361 6.23101 9.10452C7.25098 7.77869 8.36536 6.33006 8.36536 4.65213C8.36536 3.54837 7.93255 2.54893 7.23368 1.82638C6.53427 1.1032 5.56768 0.656231 4.50085 0.656231ZM1.31957 1.36267C2.13392 0.520637 3.25912 0 4.50085 0C5.74316 0 6.8684 0.520622 7.68213 1.36267C8.49648 2.20471 9 3.36817 9 4.65211C9 6.55718 7.81273 8.10012 6.72639 9.51235C6.49272 9.81647 6.26335 10.1144 6.06368 10.3918C5.51052 11.1624 4.81598 12.3387 4.77334 12.4101C4.74744 12.4559 4.7102 12.4961 4.66325 12.5256C4.51323 12.6188 4.3184 12.5692 4.22829 12.414C4.22613 12.4107 3.50621 11.1864 2.93632 10.3924C2.73719 10.1145 2.50728 9.81709 2.27361 9.51297C1.18726 8.10064 0 6.55766 0 4.65273C0 3.36819 0.503504 2.20469 1.31787 1.36329L1.31957 1.36267ZM2.83167 2.92618C3.25909 2.48423 3.84894 2.21137 4.50085 2.21137C5.15222 2.21137 5.74262 2.48424 6.17003 2.92618C6.59744 3.36812 6.86134 3.97804 6.86134 4.65211C6.86134 5.32563 6.59744 5.93611 6.17003 6.37805C5.74262 6.81999 5.15276 7.09286 4.50085 7.09286C3.84948 7.09286 3.25907 6.81999 2.83167 6.37805C2.40426 5.93611 2.14036 5.32619 2.14036 4.65211C2.14036 3.97804 2.40426 3.36812 2.83167 2.92618Z" fill="black"/>
</svg>
