<svg width="33" height="33" viewBox="0 0 33 33" fill="none" xmlns="http://www.w3.org/2000/svg">
<path d="M16.7458 0.00770789C16.1964 -0.0611661 15.7002 0.339543 15.636 0.888948C15.5719 1.43835 15.9678 1.93456 16.5172 1.99871C23.6423 2.81263 29.8128 8.79515 30.8739 15.9077C30.9459 16.4039 31.3748 16.7608 31.8631 16.7608C31.9117 16.7608 31.9633 16.7608 32.0118 16.7483C32.5613 16.6685 32.9369 16.155 32.854 15.6104C31.644 7.49599 24.871 0.932766 16.741 0.00632529L16.7458 0.00770789Z" fill="#223A93"/>
<path d="M5.79479 22.4863C9.1601 26.57 13.2392 29.6554 17.9211 31.6542C19.6288 32.3836 21.2347 32.7639 22.8378 32.8281C22.9332 32.8281 23.0256 32.8328 23.1179 32.8328C24.6049 32.8328 25.8431 32.3632 26.7963 31.435C27.5978 30.654 28.3914 29.8447 29.1521 29.0621L29.2522 28.9572C29.822 28.3718 30.1585 27.7065 30.2493 26.974C30.3855 25.9237 30.0286 24.9579 29.1881 24.1127C28.3178 23.2346 27.4412 22.3611 26.5631 21.4924C26.4504 21.3797 26.3424 21.2686 26.2313 21.1559C25.8948 20.8115 25.5457 20.4593 25.1497 20.1306C23.8756 19.0725 22.2133 19.085 20.9218 20.1588C20.7293 20.3185 20.5571 20.4906 20.4084 20.6393L20.3568 20.691C19.7792 21.2686 19.2032 21.8493 18.6256 22.4253C18.5771 22.4018 18.5332 22.3768 18.4847 22.3533C18.0793 22.1451 17.6958 21.9479 17.342 21.7241C15.4262 20.4984 13.648 18.8346 11.9044 16.6431C11.247 15.8182 10.743 15.0246 10.3705 14.2263L10.779 13.8209C11.3284 13.2793 11.8934 12.719 12.4413 12.1539C13.8485 10.6997 13.8485 8.82454 12.4413 7.38142C11.4708 6.38434 10.469 5.39037 9.50485 4.42775L8.66271 3.59035C8.22602 3.15365 7.72041 2.85312 7.16787 2.69344C6.33828 2.45239 5.09231 2.41638 3.87452 3.59504C3.58651 3.87522 3.30475 4.16012 3.02145 4.44811C2.59726 4.88011 2.19655 5.29024 1.77079 5.67372C0.556162 6.77567 -0.0527567 8.1578 0.00358303 9.67612C0.00358303 10.9862 0.211764 12.1727 0.668841 13.5188C1.72695 16.6447 3.4018 19.5704 5.79031 22.4707L5.79479 22.4863ZM3.12598 7.17161C3.59557 6.74742 4.03226 6.29819 4.45958 5.86462C4.72881 5.58756 5.00118 5.31521 5.27667 5.04753C5.6539 4.67813 5.97322 4.57481 6.25027 4.57481C6.38175 4.57481 6.50697 4.59829 6.62281 4.63429C6.85134 4.69847 7.0595 4.82682 7.25517 5.02718L8.0973 5.86458C9.05836 6.82252 10.0523 7.80866 11.0149 8.79321C11.6473 9.44592 11.6473 10.1112 11.0071 10.7764C10.4749 11.3258 9.91767 11.8784 9.3808 12.4105L8.82826 12.9599C8.1959 13.5892 8.10666 14.0572 8.47138 14.8758C8.92374 15.8933 9.53735 16.8841 10.3513 17.9046C12.2343 20.2729 14.1737 22.076 16.2774 23.4224C16.7094 23.6994 17.1555 23.928 17.5844 24.1471C17.7691 24.2426 17.9538 24.3349 18.1338 24.432C18.4625 24.6089 19.1121 24.8014 19.7961 24.1111C20.4613 23.4459 21.1219 22.7775 21.7871 22.1123L21.8435 22.0559C21.975 21.9244 22.1002 21.7992 22.2207 21.699C22.6089 21.3781 23.2147 21.1105 23.8924 21.6709C24.2086 21.9307 24.5092 22.2359 24.8253 22.5599C24.9411 22.6758 25.057 22.7963 25.1744 22.9121C26.0478 23.7777 26.9212 24.6464 27.7868 25.5214C28.2924 26.0301 28.319 26.4105 28.283 26.7111C28.2423 27.0069 28.0983 27.2808 27.8384 27.5485L27.7383 27.6533C26.9807 28.4266 26.2043 29.228 25.4185 29.9887C24.794 30.5945 24.0035 30.8543 22.9298 30.8136C21.5758 30.762 20.1968 30.4286 18.7223 29.7993C14.3381 27.9273 10.5158 25.0345 7.35858 21.1997C5.12651 18.4902 3.56751 15.7697 2.59094 12.8802C2.20588 11.7422 2.03371 10.7483 2.03371 9.65884V9.61814C1.99302 8.69306 2.36555 7.86347 3.14348 7.16223L3.12598 7.17161Z" fill="#223A93"/>
<path d="M24.9932 15.9202C25.0652 16.4164 25.4941 16.7733 25.9824 16.7733C26.031 16.7733 26.0826 16.7733 26.1311 16.7608C26.6806 16.6809 27.0562 16.1722 26.9733 15.6228C26.2031 10.4497 21.8282 6.22979 16.7961 5.81025C16.2435 5.76173 15.763 6.17496 15.7145 6.72435C15.6659 7.27688 16.0792 7.75742 16.6286 7.80594C20.1911 8.10178 24.2937 11.2198 24.995 15.9155L24.9932 15.9202Z" fill="#223A93"/>
</svg>
