<svg width="25" height="28" viewBox="0 0 25 28" fill="none" xmlns="http://www.w3.org/2000/svg">
<path d="M19.8472 11.7671C19.8472 7.78562 16.5503 4.54557 12.4989 4.54557C8.44757 4.54557 5.15065 7.78562 5.15065 11.7671C5.15065 15.7485 8.44757 18.9873 12.4989 18.9873C16.5503 18.9873 19.8472 15.7485 19.8472 11.7671ZM12.4989 18.1C8.94461 18.1 6.05228 15.2586 6.05228 11.7671C6.05228 8.27408 8.94359 5.4329 12.4989 5.4329C16.0532 5.4329 18.9443 8.27433 18.9443 11.7671C18.9443 15.2588 16.053 18.1 12.4989 18.1Z" fill="#EF4444"/>
<path d="M24.9385 24.2665L20.9093 17.4096C21.0565 17.2553 21.2408 17.1289 21.4584 17.0414L22.35 16.6792C23.0302 16.4057 23.51 15.8965 23.7388 15.2062C23.9651 14.5183 23.881 13.8292 23.4952 13.2143L22.9894 12.4061C22.6765 11.9042 22.6765 11.3293 22.9894 10.8286L23.4952 10.0204C23.881 9.40543 23.9651 8.71635 23.7376 8.02727C23.5088 7.34062 23.0289 6.83137 22.35 6.5555L21.4572 6.19453C20.9031 5.97091 20.5594 5.50545 20.5136 4.91842L20.4406 3.97167C20.3837 3.24977 20.0399 2.64454 19.4451 2.22039C18.8503 1.79502 18.1578 1.66011 17.443 1.83027L16.5019 2.05267C15.9206 2.19122 15.3641 2.01378 14.9771 1.56533L14.3513 0.842213C13.8752 0.291679 13.2346 0 12.4988 0C11.7629 0 11.1223 0.291679 10.6462 0.842213L10.0205 1.56533C9.63338 2.01378 9.07688 2.19122 8.49319 2.05267L7.55458 1.83027C6.83979 1.65891 6.14726 1.79381 5.55243 2.21917C4.9576 2.64333 4.61255 3.24856 4.55569 3.97046L4.48273 4.916C4.43697 5.503 4.09317 5.96847 3.53915 6.19332L2.64628 6.55428C1.9649 6.83016 1.48505 7.33937 1.25875 8.02606C1.03244 8.71392 1.1153 9.40182 1.50114 10.018L2.00818 10.825C2.32105 11.3269 2.32105 11.9017 2.00942 12.4025L1.50114 13.2119C1.11655 13.8268 1.03367 14.5159 1.25999 15.2026C1.4863 15.8916 1.96737 16.4009 2.64752 16.6756L3.54038 17.0377C3.75804 17.1252 3.94229 17.2516 4.08947 17.406L0.0602881 24.2628C-0.020096 24.4002 -0.020096 24.5691 0.0602881 24.7064C0.140672 24.8438 0.290306 24.9276 0.451081 24.9276H3.80119L5.47564 27.7788C5.55602 27.9161 5.70566 28 5.86643 28C6.0272 28 6.17684 27.9149 6.25723 27.7788L9.91537 21.5538C9.95123 21.5891 9.98709 21.6255 10.0217 21.6644L10.6475 22.3875C11.1236 22.9381 11.7642 23.2298 12.5 23.2298C13.2358 23.2298 13.8764 22.9381 14.3525 22.3875L14.9783 21.6644C15.0117 21.6255 15.0476 21.5891 15.0834 21.5538L18.7403 27.7788C18.8207 27.9161 18.9691 28 19.1311 28C19.2919 28 19.4415 27.9161 19.5219 27.7788L20.139 26.7312L21.1988 24.9264H24.5489C24.7097 24.9264 24.8593 24.8414 24.9397 24.7052C25.0201 24.5679 25.0201 24.399 24.9397 24.2616L24.9385 24.2665ZM5.8655 26.6753L4.45201 24.2677C4.37162 24.1304 4.22199 24.0465 4.06121 24.0465H1.23173L4.49636 18.4901L4.55696 19.2667C4.61384 19.9874 4.95763 20.5927 5.55246 21.0156C6.14606 21.441 6.83859 21.5759 7.55461 21.4069L8.49322 21.1821C8.70469 21.1323 8.91244 21.1238 9.11031 21.1541L5.8655 26.6753ZM14.2908 21.0943L13.665 21.8174C13.3608 22.1687 12.9688 22.3473 12.5001 22.3473C12.0314 22.3473 11.6381 22.1687 11.3351 21.8174L10.7094 21.0943C10.2345 20.5462 9.57784 20.2484 8.87663 20.2484C8.68124 20.2484 8.4809 20.2715 8.2818 20.3189L7.34442 20.5426C6.8881 20.6507 6.46394 20.5681 6.08426 20.2958C5.70461 20.026 5.49436 19.6554 5.45849 19.196L5.38553 18.248C5.31381 17.3304 4.75236 16.5721 3.88669 16.2208L2.99259 15.8574C2.55852 15.6824 2.26419 15.3713 2.11951 14.9326C1.97482 14.4938 2.02552 14.0709 2.27038 13.6796L2.77866 12.8701C3.26839 12.0863 3.26839 11.1493 2.77742 10.3641L2.27038 9.55714C2.02428 9.1646 1.97358 8.74165 2.11827 8.30294C2.26296 7.86544 2.55604 7.55307 2.99135 7.37685L3.88421 7.01588C4.75112 6.66465 5.31132 5.90629 5.38429 4.98751L5.45725 4.04197C5.49312 3.58135 5.70459 3.21068 6.08425 2.93966C6.46392 2.66864 6.88686 2.586 7.34319 2.69537L8.2818 2.91778C9.19445 3.13532 10.1022 2.84486 10.7081 2.14361L11.3339 1.42049C11.6381 1.06927 12.0301 0.890618 12.4988 0.890618C12.9675 0.890618 13.3608 1.06927 13.6638 1.42049L14.2895 2.14361C14.8968 2.84606 15.8032 3.13532 16.7147 2.91899L17.6558 2.69537C18.1121 2.58599 18.535 2.66863 18.9147 2.94087C19.2943 3.21067 19.5046 3.58135 19.5405 4.04197L19.6134 4.98872C19.6852 5.9075 20.2466 6.66586 21.1135 7.01709L22.0064 7.37806C22.4404 7.55428 22.7348 7.8654 22.8794 8.30415C23.0241 8.7429 22.9734 9.16459 22.7261 9.55835L22.2191 10.3666C21.7293 11.1504 21.7293 12.0874 22.2191 12.8726L22.7261 13.6808C22.9722 14.0733 23.0241 14.4951 22.8794 14.9338C22.7335 15.3737 22.4404 15.6861 22.0051 15.8599L21.1123 16.222C20.6337 16.4165 20.2478 16.7349 19.9869 17.136C19.9844 17.1384 19.9832 17.142 19.9807 17.1445C19.773 17.4665 19.6443 17.8421 19.6122 18.2492L19.5392 19.1972C19.5034 19.6566 19.2919 20.0273 18.9122 20.2983C18.5326 20.5693 18.1096 20.6519 17.6533 20.545L16.7122 20.3202C15.8008 20.1026 14.8943 20.3931 14.2871 21.0943L14.2908 21.0943ZM20.9365 24.0452C20.7758 24.0452 20.6261 24.1302 20.5458 24.2663L19.131 26.6751L15.8873 21.1527C16.0851 21.1223 16.2917 21.1296 16.5031 21.1806L17.4442 21.4055C18.159 21.5744 18.8516 21.4395 19.4452 21.0153C20.04 20.5912 20.385 19.986 20.4419 19.2653L20.5025 18.4899L23.7671 24.0463H20.9376L20.9365 24.0452Z" fill="#EF4444"/>
<path d="M16.0073 9.87233L14.7669 9.57943C14.4677 9.50773 14.2438 9.34852 14.0818 9.09088L13.414 8.0226C13.2149 7.70298 12.8798 7.51945 12.4976 7.51945C12.1155 7.51945 11.7804 7.70296 11.5813 8.0226L10.9147 9.08966C10.7527 9.34853 10.5276 9.50775 10.2296 9.57943L8.98798 9.87354C8.61574 9.96226 8.33502 10.2175 8.21754 10.5748C8.10005 10.9333 8.17425 11.3028 8.42158 11.5859L9.24892 12.5424C9.44802 12.7721 9.53458 13.031 9.51109 13.3336L9.41216 14.5841C9.38248 14.9585 9.54201 15.3 9.8524 15.5212C10.0416 15.6561 10.258 15.7253 10.4782 15.7253C10.6167 15.7253 10.7564 15.6986 10.8937 15.6427L12.0747 15.1638C12.3591 15.0472 12.6361 15.0472 12.9206 15.1638L14.1016 15.6439C14.4553 15.7861 14.8349 15.7411 15.1417 15.5212C15.4521 15.3 15.6116 14.9585 15.5819 14.5854L15.483 13.3348C15.4595 13.0346 15.5448 12.7757 15.7451 12.5436L16.5712 11.5896C16.8198 11.3052 16.894 10.9357 16.7765 10.5772C16.659 10.2199 16.3783 9.96467 16.0061 9.87597L16.0073 9.87233ZM15.8874 11.0086L15.06 11.9639C14.7014 12.3771 14.5419 12.8596 14.5851 13.3992L14.6841 14.651C14.689 14.7142 14.6668 14.7616 14.6136 14.8005C14.5592 14.8394 14.5072 14.8442 14.4454 14.8199L13.2681 14.3411C13.0133 14.2365 12.7561 14.1855 12.4989 14.1855C12.2429 14.1855 11.9857 14.2378 11.7309 14.3411L10.5511 14.8199C10.4893 14.8454 10.4373 14.8394 10.3842 14.8005C10.331 14.7628 10.3087 14.7154 10.3137 14.651L10.4126 13.3992C10.4534 12.8584 10.2939 12.3771 9.93773 11.9663L9.10916 11.0086C9.06712 10.96 9.05722 10.9102 9.07824 10.847C9.09803 10.785 9.13637 10.751 9.20191 10.7352L10.4435 10.4411C10.9765 10.3135 11.3945 10.0157 11.6851 9.5551L12.3529 8.48683C12.3876 8.43092 12.4333 8.40662 12.5001 8.40662C12.5669 8.40662 12.6126 8.43092 12.6473 8.48683L13.3151 9.55632C13.6045 10.0169 14.0225 10.3147 14.5567 10.4411L15.7971 10.734C15.8626 10.7498 15.901 10.7838 15.9207 10.8458C15.9418 10.909 15.9319 10.9588 15.8886 11.0087L15.8874 11.0086Z" fill="#EF4444"/>
</svg>
