<svg width="25" height="18" viewBox="0 0 25 18" fill="none" xmlns="http://www.w3.org/2000/svg">
<path d="M24.591 17.1612H22.937V6.66379C22.937 6.43196 22.754 6.24439 22.5279 6.24439H17.4158C17.1896 6.24439 17.0066 6.43196 17.0066 6.66379V17.1612H15.5325V0.419395C15.5325 0.187569 15.3496 0 15.1234 0H10.0113C9.78517 0 9.6022 0.187566 9.6022 0.419395V17.1612H8.1281V4.27399C8.1281 4.04216 7.94512 3.85459 7.71897 3.85459H2.60794C2.38178 3.85459 2.19881 4.04216 2.19881 4.27399V17.1612H0.40913C0.182978 17.1612 0 17.3488 0 17.5806C0 17.8124 0.182976 18 0.40913 18H24.5909C24.817 18 25 17.8124 25 17.5806C25 17.3488 24.8171 17.1612 24.591 17.1612ZM17.825 7.08326H22.1186V17.1612H17.825V7.08326ZM10.4216 0.838871H14.7152V17.1615H10.4216V0.838871ZM3.01712 4.69346H7.31079V17.1615H3.01712V4.69346Z" fill="#22C55E"/>
</svg>
