<svg width="53" height="54" viewBox="0 0 53 54" fill="none" xmlns="http://www.w3.org/2000/svg">
<path d="M25.3344 29.7473C25.3344 29.2224 25.7603 28.7965 26.2852 28.7965C26.8102 28.7965 27.236 29.2224 27.236 29.7473V31.894C27.236 32.4189 26.8102 32.8448 26.2852 32.8448C25.7603 32.8448 25.3344 32.4189 25.3344 31.894V29.7473ZM31.2769 37.3587C30.752 37.3587 30.3261 36.9328 30.3261 36.4079C30.3261 35.883 30.752 35.4571 31.2769 35.4571H42.3448C42.8697 35.4571 43.2956 35.883 43.2956 36.4079C43.2956 36.9328 42.8697 37.3587 42.3448 37.3587H31.2769ZM10.2282 31.8619C9.70332 31.8619 9.27744 31.436 9.27744 30.9111C9.27744 30.3862 9.70332 29.9603 10.2282 29.9603H21.2961C21.821 29.9603 22.2469 30.3862 22.2469 30.9111C22.2469 31.436 21.821 31.8619 21.2961 31.8619H10.2282ZM10.2282 26.3651C9.70332 26.3651 9.27744 25.9393 9.27744 25.4143C9.27744 24.8894 9.70332 24.4635 10.2282 24.4635H18.7632C19.2881 24.4635 19.714 24.8894 19.714 25.4143C19.714 25.9393 19.2881 26.3651 18.7632 26.3651H10.2282ZM12.0853 2.38738C11.6322 2.12739 11.4762 1.54802 11.7361 1.09487C11.9961 0.641722 12.5755 0.485767 13.0287 0.745752L15.8736 2.38733C16.3267 2.64731 16.4827 3.22669 16.2227 3.67984C15.9628 4.13295 15.3834 4.28894 14.9302 4.02896L12.0853 2.38738ZM36.6994 16.5973C36.2463 16.3373 36.0903 15.7579 36.3503 15.3048C36.6103 14.8517 37.1897 14.6957 37.6428 14.9557L40.4878 16.5973C40.9409 16.8572 41.0969 17.4366 40.8369 17.8898C40.5769 18.3429 39.9975 18.4989 39.5444 18.2389L36.6994 16.5973ZM13.0335 18.2389C12.5804 18.5013 11.9986 18.3478 11.7385 17.8947C11.4761 17.4416 11.6296 16.8597 12.0827 16.5997L14.9277 14.9582C15.3808 14.6957 15.9626 14.8492 16.2227 15.3023C16.4851 15.7554 16.3316 16.3373 15.8785 16.5973L13.0335 18.2389ZM37.6477 4.02896C37.1946 4.29141 36.6127 4.13791 36.3527 3.68479C36.0902 3.23168 36.2437 2.64982 36.6969 2.38981L39.5418 0.74823C39.9949 0.485773 40.5768 0.639282 40.8368 1.0924C41.0993 1.54551 40.9458 2.12737 40.4926 2.38738L37.6477 4.02896ZM10.4334 10.4443C9.90849 10.4443 9.48262 10.0184 9.48262 9.49349C9.48262 8.96857 9.90849 8.54269 10.4334 8.54269H13.7166C14.2415 8.54269 14.6674 8.96857 14.6674 9.49349C14.6674 10.0184 14.2415 10.4443 13.7166 10.4443H10.4334ZM38.8558 10.4443C38.3309 10.4443 37.905 10.0184 37.905 9.49349C37.905 8.96857 38.3309 8.54269 38.8558 8.54269H42.1415C42.6664 8.54269 43.0923 8.96857 43.0923 9.49349C43.0923 10.0184 42.6664 10.4443 42.1415 10.4443H38.8558ZM31.626 19.8083V23.6239C31.626 24.3766 31.3165 25.0649 30.8213 25.5601C30.3261 26.0554 29.6402 26.3648 28.885 26.3648H23.6879C22.9352 26.3648 22.2468 26.0553 21.7516 25.5601C21.2564 25.0649 20.9469 24.3791 20.9469 23.6239V17.3372C19.7461 16.5201 18.7432 15.4307 18.0252 14.1654C17.2427 12.7838 16.7946 11.1868 16.7946 9.49317C16.7946 6.87107 17.8568 4.49903 19.5752 2.78056C21.2935 1.06223 23.6656 0 26.2878 0C28.9049 0 31.2794 1.0647 32.9978 2.78304C34.7187 4.4989 35.7809 6.87342 35.7809 9.49311C35.7809 11.1867 35.3327 12.7837 34.5503 14.1654C33.8323 15.4331 32.8295 16.52 31.6286 17.3372V19.8082L31.626 19.8083ZM22.8508 20.7343V23.6239C22.8508 23.8541 22.9473 24.0621 23.0984 24.2156C23.2494 24.3667 23.4599 24.4632 23.6902 24.4632H28.8873C29.1176 24.4632 29.3256 24.3667 29.4791 24.2156C29.6301 24.0646 29.7267 23.8541 29.7267 23.6239V20.7343H22.8508ZM31.6558 4.12271C30.2865 2.75096 28.3874 1.90171 26.2877 1.90171C24.1905 1.90171 22.2939 2.75096 20.9197 4.12518C19.5454 5.49939 18.6962 7.39603 18.6962 9.49323C18.6962 10.855 19.0527 12.1327 19.6742 13.2295C20.3106 14.3512 21.2242 15.297 22.3236 15.9705C22.6356 16.1265 22.851 16.4484 22.851 16.8223V18.8328H29.7246V16.8223C29.7295 16.5004 29.893 16.1859 30.1876 16.0102C31.3117 15.3367 32.2501 14.376 32.8988 13.2321C33.5203 12.1327 33.8769 10.8576 33.8769 9.49577C33.8769 7.39857 33.0276 5.50193 31.6534 4.12524L31.6558 4.12271ZM31.2794 31.8618C30.7545 31.8618 30.3286 31.4359 30.3286 30.911C30.3286 30.3861 30.7545 29.9602 31.2794 29.9602H42.3473C42.8722 29.9602 43.2981 30.3861 43.2981 30.911C43.2981 31.4359 42.8722 31.8618 42.3473 31.8618H31.2794ZM31.2794 42.858C30.7545 42.858 30.3286 42.4322 30.3286 41.9072C30.3286 41.3823 30.7545 40.9565 31.2794 40.9565H42.3473C42.8722 40.9565 43.2981 41.3823 43.2981 41.9072C43.2981 42.4322 42.8722 42.858 42.3473 42.858H31.2794ZM33.8124 26.3649C33.2875 26.3649 32.8616 25.9391 32.8616 25.4141C32.8616 24.8892 33.2875 24.4634 33.8124 24.4634H42.3474C42.8723 24.4634 43.2981 24.8892 43.2981 25.4141C43.2981 25.9391 42.8723 26.3649 42.3474 26.3649H33.8124ZM10.2308 37.3587C9.70589 37.3587 9.28001 36.9328 9.28001 36.4079C9.28001 35.8829 9.70589 35.4571 10.2308 35.4571H21.2987C21.8236 35.4571 22.2495 35.8829 22.2495 36.4079C22.2495 36.9328 21.8236 37.3587 21.2987 37.3587H10.2308ZM10.2308 42.8579C9.70589 42.8579 9.28001 42.432 9.28001 41.9071C9.28001 41.3822 9.70589 40.9563 10.2308 40.9563H21.2987C21.8236 40.9563 22.2495 41.3822 22.2495 41.9071C22.2495 42.432 21.8236 42.8579 21.2987 42.8579H10.2308ZM42.1122 15.0821C41.5873 15.0821 41.1614 14.6562 41.1614 14.1313C41.1614 13.6064 41.5873 13.1805 42.1122 13.1805H44.0509C45.2171 13.1805 46.2793 13.6583 47.0445 14.4259C47.8095 15.191 48.2874 16.2532 48.2874 17.4194V17.5234C49.3496 17.7215 50.3029 18.239 51.0382 18.9744C51.9866 19.9227 52.5759 21.235 52.5759 22.676V48.7607C52.5759 50.1968 51.9866 51.5091 51.0382 52.4599L51.0333 52.4649C50.0825 53.4132 48.7727 54 47.3366 54H5.23925C3.79823 54 2.48588 53.4107 1.53762 52.4624C0.589302 51.5141 0 50.2018 0 48.7607V22.676C0 21.2375 0.589296 19.9277 1.53762 18.9769C2.2755 18.239 3.22877 17.719 4.28846 17.5234V17.4194C4.28846 16.2582 4.76634 15.1984 5.53387 14.4284L5.53883 14.4234C6.30637 13.6559 7.36612 13.1805 8.52736 13.1805H10.4661C10.991 13.1805 11.4169 13.6064 11.4169 14.1313C11.4169 14.6562 10.991 15.0821 10.4661 15.0821H8.52736C7.88361 15.0821 7.29925 15.3445 6.8783 15.7654C6.4549 16.1888 6.18999 16.7757 6.18999 17.4194V45.5097C6.18999 46.151 6.45245 46.7353 6.8783 47.1587C7.30171 47.5821 7.88602 47.8446 8.52736 47.8446H25.3374V39.5422C25.3374 39.0173 25.7633 38.5914 26.2882 38.5914C26.8131 38.5914 27.239 39.0173 27.239 39.5422V47.8446H44.049C44.6928 47.8446 45.2771 47.5821 45.7005 47.1587C46.1239 46.7353 46.3864 46.151 46.3864 45.5072V17.417C46.3864 16.7757 46.1214 16.1889 45.7005 15.7679C45.2771 15.3445 44.6928 15.0796 44.0515 15.0796H42.1128L42.1122 15.0821ZM48.2899 19.477V45.5097C48.2899 46.6735 47.812 47.7332 47.0469 48.5008C46.2769 49.2708 45.2147 49.7488 44.0534 49.7488H8.53237C7.36619 49.7488 6.30396 49.2709 5.53883 48.5058C4.77128 47.7383 4.29341 46.6785 4.29341 45.5123V19.4795C3.75611 19.6405 3.27327 19.9351 2.88453 20.3214C2.28038 20.9255 1.904 21.7624 1.904 22.6811V48.7658C1.904 49.6819 2.28036 50.5188 2.88453 51.123C3.48867 51.7271 4.32555 52.1035 5.24173 52.1035H47.3391C48.2577 52.1035 49.0946 51.7296 49.6963 51.1255C50.3029 50.5188 50.6768 49.6844 50.6768 48.7633V22.6786C50.6768 21.7625 50.3005 20.9256 49.6963 20.3214C49.31 19.9351 48.8272 19.6405 48.2899 19.4795V19.477ZM25.3396 35.4599C25.3396 34.9349 25.7655 34.5091 26.2904 34.5091C26.8153 34.5091 27.2412 34.9349 27.2412 35.4599V35.9798C27.2412 36.5047 26.8153 36.9306 26.2904 36.9306C25.7655 36.9306 25.3396 36.5047 25.3396 35.9798V35.4599Z" fill="#223A93"/>
</svg>
