<svg width="30" height="30" viewBox="0 0 30 30" fill="none" xmlns="http://www.w3.org/2000/svg">
<path fill-rule="evenodd" clip-rule="evenodd" d="M8.33333 14.4446C8.33333 13.2168 9.32779 12.2224 10.5556 12.2224C11.7833 12.2224 12.7778 13.2168 12.7778 14.4446C12.7778 15.6724 11.7833 16.6668 10.5556 16.6668C9.32779 16.6668 8.33333 15.6724 8.33333 14.4446ZM10.5556 13.3335C9.94165 13.3335 9.44444 13.8307 9.44444 14.4446C9.44444 15.0585 9.94165 15.5557 10.5556 15.5557C11.1695 15.5557 11.6667 15.0585 11.6667 14.4446C11.6667 13.8307 11.1695 13.3335 10.5556 13.3335Z" fill="white"/>
<path fill-rule="evenodd" clip-rule="evenodd" d="M19.4444 12.2224C18.2167 12.2224 17.2222 13.2168 17.2222 14.4446C17.2222 15.6724 18.2167 16.6668 19.4444 16.6668C20.6722 16.6668 21.6667 15.6724 21.6667 14.4446C21.6667 13.2168 20.6722 12.2224 19.4444 12.2224ZM18.3333 14.4446C18.3333 13.8307 18.8305 13.3335 19.4444 13.3335C20.0583 13.3335 20.5556 13.8307 20.5556 14.4446C20.5556 15.0585 20.0583 15.5557 19.4444 15.5557C18.8305 15.5557 18.3333 15.0585 18.3333 14.4446Z" fill="white"/>
<path d="M10.6903 21.6834C10.3931 21.6084 10.0917 21.7903 10.0167 22.0876C9.94171 22.3848 10.1237 22.6862 10.4209 22.7612C13.4278 23.5125 16.5723 23.5125 19.5793 22.7612C19.8765 22.6862 20.0585 22.3848 19.9834 22.0876C19.9084 21.7903 19.607 21.6084 19.3098 21.6834C16.4807 22.3903 13.5195 22.3903 10.6903 21.6834Z" fill="white"/>
<path fill-rule="evenodd" clip-rule="evenodd" d="M5.55573 9.44444C5.55573 8.83054 6.05294 8.33333 6.66684 8.33333H23.3335C23.9474 8.33333 24.4446 8.83054 24.4446 9.44444V26.1111C24.4446 26.725 23.9474 27.2222 23.3335 27.2222H6.66684C6.05294 27.2222 5.55573 26.725 5.55573 26.1111V9.44444ZM23.3335 9.44444H6.66684V26.1111H23.3335V9.44444Z" fill="white"/>
<path fill-rule="evenodd" clip-rule="evenodd" d="M15 0C13.7722 0 12.7778 0.994453 12.7778 2.22222C12.7778 3.25835 13.4861 4.12779 14.4444 4.375V5.55556H5.55556C4.02084 5.55556 2.77778 6.79861 2.77778 8.33333V12.7778H1.66667C0.745849 12.7778 0 13.5236 0 14.4444V18.8889C0 19.8097 0.745849 20.5556 1.66667 20.5556H2.77778V27.2222C2.77778 28.7569 4.02084 30 5.55556 30H24.4444C25.9792 30 27.2222 28.7569 27.2222 27.2222V20.5556H28.3333C29.2542 20.5556 30 19.8097 30 18.8889V14.4444C30 13.5236 29.2542 12.7778 28.3333 12.7778H27.2222V8.33333C27.2222 6.79861 25.9792 5.55556 24.4444 5.55556H15.5556V4.375C16.5139 4.12778 17.2222 3.25835 17.2222 2.22222C17.2222 0.994453 16.2278 0 15 0ZM13.8889 2.22222C13.8889 1.60832 14.3861 1.11111 15 1.11111C15.6139 1.11111 16.1111 1.60832 16.1111 2.22222C16.1111 2.83612 15.6139 3.33333 15 3.33333C14.3861 3.33333 13.8889 2.83612 13.8889 2.22222ZM2.77778 13.8887V19.4443H1.66667C1.35972 19.4443 1.11111 19.1957 1.11111 18.8887V14.4443C1.11111 14.1373 1.35972 13.8887 1.66667 13.8887H2.77778ZM27.2222 19.4443H28.3333C28.6403 19.4443 28.8889 19.1957 28.8889 18.8887V14.4443C28.8889 14.1373 28.6403 13.8887 28.3333 13.8887H27.2222V19.4443ZM5.55538 6.66631C4.63456 6.66631 3.88871 7.41216 3.88871 8.33298V27.2219C3.88871 28.1427 4.63456 28.8885 5.55538 28.8885H24.4443C25.3651 28.8885 26.1109 28.1427 26.1109 27.2219V8.33298C26.1109 7.41216 25.3651 6.66631 24.4443 6.66631H5.55538Z" fill="white"/>
</svg>
