<svg width="30" height="21" viewBox="0 0 30 21" fill="none" xmlns="http://www.w3.org/2000/svg">
<path d="M29.4535 6.70715L15.3105 11.7417C15.1118 11.8079 14.9131 11.8079 14.7474 11.7417L0.57135 6.70715C-0.19045 6.44217 -0.19045 5.38228 0.57135 5.11731L14.7143 0.0496826C14.9131 -0.0165609 15.1118 -0.0165609 15.2774 0.0496826L29.4535 5.11731C30.1822 5.38228 30.1822 6.44217 29.4535 6.70715ZM28.4267 12.4703V8.86006L26.7375 9.45625V12.5366C26.4063 12.8015 26.1744 13.2321 26.1744 13.6958C26.1744 14.5239 26.8369 15.1532 27.6318 15.1532C28.4267 15.1532 29.0892 14.4908 29.0892 13.6958C29.0892 13.1659 28.8242 12.7022 28.4267 12.4703ZM15.0124 13.4971C14.7143 13.4971 14.4162 13.464 14.1513 13.3646L5.04278 10.1187V17.1736C10.9716 21.4794 19.0202 21.4794 24.9489 17.1736V10.0856L15.8736 13.3315C15.5755 13.4309 15.3105 13.4971 15.0124 13.4971Z" fill="white"/>
</svg>
