<svg width="35" height="35" viewBox="0 0 35 35" fill="none" xmlns="http://www.w3.org/2000/svg">
<rect width="34.28" height="34.28" rx="17.14" fill="#FACC15"/>
<path fill-rule="evenodd" clip-rule="evenodd" d="M24.9352 25.1002C24.8571 25.4969 24.4724 25.7564 24.0764 25.679C23.6769 25.601 23.4202 25.2169 23.4975 24.8195C24.0089 22.243 24.241 19.68 24.2305 17.1275C24.2199 14.5672 23.9639 12.0076 23.4975 9.4495C23.423 9.0521 23.6861 8.67158 24.0849 8.59912C24.4808 8.52597 24.8621 8.78903 24.9352 9.18643C25.9045 14.4786 25.9875 19.8058 24.9352 25.1002ZM21.9908 19.4191C19.0395 21.4259 15.892 22.9521 12.5095 24.0585C11.7253 24.3153 10.9305 24.221 10.2271 23.7905C9.52089 23.3594 9.07708 22.6919 8.94905 21.8752C8.45389 18.7193 8.47358 15.5605 8.96172 12.4058C9.08973 11.585 9.53285 10.9189 10.2397 10.4863C10.9438 10.0552 11.7442 9.96163 12.5307 10.2198C15.8773 11.3226 19.0417 12.8996 21.9803 14.8789C22.7484 15.3972 23.1851 16.2181 23.1873 17.1485C23.1894 18.0798 22.7589 18.8972 21.9908 19.4191ZM16.7613 20.7639C18.2841 20.0212 19.7534 19.1715 21.1658 18.2099C21.5351 17.9588 21.7285 17.5924 21.7264 17.1478C21.7264 16.7026 21.533 16.3432 21.1602 16.0928C18.3194 14.1768 15.3111 12.6786 12.0692 11.6116C11.693 11.4871 11.3399 11.5279 11.0008 11.7347C10.6653 11.9408 10.4649 12.2411 10.4065 12.6287C9.93945 15.6377 9.92047 18.6431 10.3938 21.6514C10.4543 22.0403 10.6513 22.3357 10.9882 22.5411C11.3251 22.7479 11.6803 22.7887 12.0545 22.6656C13.6673 22.1388 15.2371 21.5066 16.7613 20.7639Z" fill="black"/>
</svg>
