<svg width="56" height="54" viewBox="0 0 56 54" fill="none" xmlns="http://www.w3.org/2000/svg">
<path d="M47.2432 33.4842C46.9868 33.5995 46.7492 33.7527 46.5383 33.9386C46.3381 34.0764 46.1544 34.2366 45.9907 34.4163C45.9907 34.9114 46.1363 35.4998 46.1946 36.1639C46.3571 37.5171 46.1685 38.8893 45.647 40.1485C45.414 40.731 45.1402 41.2786 44.9829 41.7447C45.1177 41.9985 45.2799 42.2368 45.4664 42.4554C45.6035 42.6632 45.7726 42.848 45.9674 43.003C46.7665 42.7889 47.4767 42.3257 47.9947 41.6806C48.7304 40.8095 49.2019 39.7462 49.3537 38.6161C49.5054 37.486 49.331 36.336 48.851 35.3017C48.5239 34.5391 47.9602 33.9019 47.2432 33.4842Z" fill="#223A93"/>
<path d="M50.8375 43.0905C50.2861 44.0737 49.6793 45.0248 49.02 45.9391C49.1125 46.2164 49.2635 46.4707 49.4627 46.6848C49.7132 47.0052 49.9404 47.2265 49.9986 47.2032C51.2583 46.6284 52.3524 45.7448 53.1793 44.6342C54.3446 43.1148 55.0925 41.3172 55.349 39.4197C55.6055 37.5222 55.3616 35.5906 54.6415 33.8164C54.139 32.5253 53.3172 31.3829 52.2531 30.4959C52.2006 30.4551 51.8686 30.6415 51.5249 30.9153C51.1812 31.1891 50.989 31.3813 51.0064 31.4279C51.3952 32.4882 51.7239 33.5696 51.9909 34.6669C52.6357 37.5232 52.2217 40.5164 50.8258 43.0905H50.8375Z" fill="#223A93"/>
<path d="M45.6353 23.8082C45.5636 23.6846 45.4838 23.5659 45.3965 23.4528C45.2256 23.2367 45.0301 23.0412 44.8139 22.8703C44.5052 22.6316 44.1757 22.4211 43.8294 22.2411L43.1711 21.8392C42.7553 21.5579 42.3654 21.2401 42.0061 20.8896C41.6525 20.5345 41.3363 20.1441 41.0623 19.7245C40.7946 19.3058 40.5664 18.8631 40.3808 18.4021C40.1991 17.9351 40.0644 17.4512 39.9788 16.9574C39.9364 16.7126 39.9072 16.4656 39.8914 16.2176L39.8099 15.2681C39.7283 13.94 39.4997 12.6252 39.1283 11.3475C38.769 10.0313 38.2423 8.76655 37.5612 7.5843C37.2132 6.97589 36.8239 6.39198 36.3962 5.83667C35.9577 5.29249 35.4807 4.78048 34.9689 4.30458C32.9265 2.47395 30.4399 1.21058 27.757 0.640375C27.4374 0.552056 27.1124 0.483958 26.7842 0.436485L25.8055 0.267547C25.1531 0.162689 24.5064 0.127736 23.854 0.0578311C22.5619 -0.019277 21.2663 -0.019277 19.9742 0.0578311C14.7783 0.314848 9.83438 2.37481 5.99319 5.88327C4.17658 7.59893 2.71572 9.65562 1.69402 11.9359C0.520823 14.5743 -0.0561152 17.4389 0.00429941 20.3257C0.064714 23.2125 0.760995 26.0505 2.04354 28.6374C2.27656 29.1151 2.53094 29.5792 2.80667 30.0297L3.52903 31.2531C5.20373 34.21 6.14092 37.5271 6.26116 40.9233C6.35555 43.6833 5.88986 46.4339 4.89218 49.009C4.8418 49.1122 4.81238 49.2243 4.80563 49.3389C4.79888 49.4535 4.81493 49.5683 4.85286 49.6767C4.89078 49.785 4.94983 49.8848 5.02658 49.9702C5.10332 50.0556 5.19625 50.1249 5.29996 50.1741C5.50537 50.2278 5.72342 50.2034 5.9118 50.1054C6.10018 50.0075 6.24544 49.843 6.31942 49.644C7.60437 46.9085 8.28394 43.9279 8.31172 40.9058C8.34842 37.1383 7.44757 33.4208 5.69027 30.088L4.96791 28.7714C4.74266 28.3831 4.53295 27.9714 4.33877 27.5364C3.29515 25.2826 2.75457 22.8286 2.75457 20.3449C2.75457 17.8612 3.29515 15.4072 4.33877 13.1534C5.24378 11.2402 6.51428 9.52245 8.0787 8.09694C11.4194 5.12332 15.6812 3.38936 20.149 3.18609C21.3138 3.12958 22.4809 3.14125 23.6443 3.22105C24.2268 3.29095 24.8094 3.31425 25.357 3.41328L26.2016 3.55892C26.4832 3.5996 26.7616 3.65994 27.0347 3.73951C29.1922 4.19916 31.191 5.21767 32.831 6.69301C33.2247 7.05526 33.5926 7.44457 33.932 7.8581C34.2605 8.28832 34.5602 8.73981 34.8291 9.2096C35.3811 10.1646 35.8079 11.1866 36.0991 12.2505C36.4173 13.3319 36.6127 14.4458 36.6816 15.571L36.7224 15.9904C36.7224 16.136 36.7515 16.2467 36.7632 16.4506C36.7884 16.812 36.8331 17.1718 36.8972 17.5283C37.0216 18.2335 37.2168 18.9244 37.4797 19.5905C37.7494 20.2562 38.083 20.8942 38.4758 21.4955C38.8772 22.0865 39.3378 22.635 39.8506 23.1324C40.3551 23.6202 40.903 24.0609 41.4876 24.4489L42.3672 24.9732C42.5519 25.0662 42.7292 25.1733 42.8974 25.2936L42.9673 25.3577C42.9682 25.3752 42.9682 25.3927 42.9673 25.4101C43.0004 25.4793 43.0183 25.5548 43.0197 25.6315C43.0203 25.7078 43.0044 25.7833 42.9731 25.8529C42.9265 25.9344 42.9731 25.9344 42.7692 26.115C42.1022 26.7334 41.288 27.1706 40.4041 27.385C40.0727 27.4774 39.7829 27.6803 39.5827 27.96C39.3824 28.2397 39.2838 28.5794 39.3031 28.9229L39.4836 32.255L39.0992 32.3366C38.5865 32.4356 38.0739 32.5172 37.5612 32.5696C37.0486 32.622 36.536 32.6512 36.0292 32.657H35.4466C35.2992 32.6461 35.1513 32.6461 35.0039 32.657C34.3714 32.7374 33.7918 33.0511 33.3786 33.5366C32.98 34.0029 32.7592 34.5951 32.7553 35.2085C32.7534 35.4974 32.7986 35.7847 32.8892 36.0591C32.9475 36.228 33.0058 36.3969 33.0815 36.56C33.3608 37.2084 33.7555 37.8005 34.2466 38.3077C35.1755 39.2581 36.3423 39.942 37.6253 40.2883C37.8933 40.3582 38.1613 40.4281 38.4292 40.4806L38.3419 40.865C38.3069 41.0282 38.2778 41.1738 38.2545 41.3194C38.2079 41.6107 38.1729 41.902 38.1554 42.1932C38.1287 42.517 38.1287 42.8424 38.1554 43.1661C38.1554 43.2651 38.1554 43.3583 38.202 43.4748V43.5389L38.2545 43.7137V43.7719C38.2833 43.8459 38.3067 43.9218 38.3244 43.9991C38.4641 44.6111 38.3598 45.2535 38.0334 45.7898C37.7071 46.3261 37.1845 46.714 36.5768 46.8711C36.487 46.8983 36.3955 46.9197 36.303 46.9352L35.9826 46.9934L35.3476 47.0983C34.9243 47.1643 34.5048 47.2167 34.0893 47.2556C33.2563 47.3371 32.429 47.3779 31.6193 47.3779C30.0856 47.397 28.5544 47.2506 27.0522 46.941C25.7249 46.672 24.4383 46.2314 23.2248 45.6303C22.1693 45.1158 21.2097 44.4242 20.3879 43.5855C20.243 43.4159 20.0414 43.3047 19.8207 43.2726C19.6 43.2404 19.3751 43.2895 19.1878 43.4108C19.1073 43.4904 19.0434 43.5852 18.9998 43.6897C18.9562 43.7942 18.9337 43.9063 18.9337 44.0195C18.9337 44.1327 18.9562 44.2449 18.9998 44.3493C19.0434 44.4538 19.1073 44.5486 19.1878 44.6283C20.0754 45.682 21.1448 46.5679 22.3452 47.2439C23.3988 47.8554 24.5162 48.3496 25.6774 48.7177C25.0016 50.209 25.1239 52.9528 26.0502 53.9606C26.3342 53.9956 26.6206 54.0073 26.9065 53.9956C27.1556 54.0053 27.4051 53.9936 27.6522 53.9606C28.4561 53.0868 28.6542 50.8848 28.2347 49.3469C29.3424 49.5353 30.4614 49.6502 31.5844 49.6906C32.4834 49.7242 33.3836 49.7126 34.2815 49.6556C34.7398 49.6284 35.2039 49.5857 35.6738 49.5275L36.3787 49.4343L36.734 49.3818C36.8447 49.3818 36.9729 49.3411 37.1302 49.3061C38.3682 49.0391 39.4531 48.2991 40.1536 47.2439C40.5188 46.7007 40.7723 46.0904 40.8993 45.4483C41.0263 44.8062 41.0243 44.1453 40.8934 43.504C40.8626 43.3404 40.8218 43.179 40.7711 43.0205V42.9331C40.7584 42.7605 40.7584 42.5872 40.7711 42.4146C40.7711 42.2165 40.8177 42.001 40.8585 41.7971C40.8585 41.6981 40.8992 41.5932 40.9225 41.5117L41.0157 41.1563L41.1148 40.7893C41.1868 40.5099 41.2085 40.22 41.1788 39.933C41.1173 39.3203 40.8157 38.7569 40.34 38.3659C40.0966 38.1659 39.8152 38.0172 39.5128 37.929L39.0409 37.8183C38.8195 37.7776 38.6098 37.7077 38.3943 37.6494C37.6063 37.4329 36.8891 37.013 36.3146 36.4319C36.0859 36.1831 35.9008 35.8975 35.767 35.5872H36.0233C36.6059 35.5872 37.235 35.5872 37.8409 35.5115C38.4467 35.4357 39.0526 35.3775 39.6526 35.2668C40.2826 35.1531 40.9051 35.0014 41.5167 34.8124C41.8166 34.7188 42.0778 34.5299 42.2607 34.2745C42.4436 34.019 42.5383 33.7109 42.5303 33.3968V33.3502L42.3905 29.9715C43.3526 29.606 44.2306 29.0491 44.9712 28.3345C45.1276 28.1813 45.2736 28.0179 45.4081 27.8452C45.5566 27.63 45.6816 27.3996 45.7809 27.1578C45.996 26.6859 46.1074 26.1734 46.1074 25.6548C46.1074 25.1362 45.996 24.6237 45.7809 24.1519C45.7384 24.0348 45.6898 23.9201 45.6353 23.8082Z" fill="#223A93"/>
</svg>
