<svg width="15" height="25" viewBox="0 0 15 25" fill="none" xmlns="http://www.w3.org/2000/svg">
<path d="M9.18395 10.016C10.9333 10.4853 12.2666 11.3707 13.184 12.672C14.1226 13.9733 14.592 15.5733 14.592 17.472C14.592 18.8373 14.272 20.0533 13.632 21.12C12.992 22.1867 12.0746 23.0187 10.88 23.616C9.68529 24.2133 8.28795 24.512 6.68795 24.512C5.47195 24.512 4.31995 24.3413 3.23195 24C2.14395 23.6373 1.23729 23.136 0.511953 22.496L-4.68493e-05 18.336L0.351953 18.272C0.949287 19.0613 1.74929 19.6693 2.75195 20.096C3.77595 20.5227 4.93862 20.736 6.23995 20.736C7.51995 20.736 8.54395 20.3947 9.31195 19.712C10.1013 19.0293 10.496 18.1333 10.496 17.024C10.496 15.68 9.99462 14.656 8.99195 13.952C7.98929 13.248 6.51729 12.896 4.57595 12.896H3.80795V11.36L8.54395 3.68H0.511953L0.287953 3.328L1.27995 -1.90735e-06H13.728V2.112L9.18395 10.016Z" fill="#223A93"/>
</svg>
