<svg width="12" height="11" viewBox="0 0 12 11" fill="none" xmlns="http://www.w3.org/2000/svg">
<path d="M11.4049 0.296834C11.2214 -0.000958356 10.8388 -0.089671 10.5494 0.0994451C9.72892 0.635576 8.93258 1.2219 8.17871 1.87008C6.66962 3.15485 5.36066 4.72472 4.24601 6.37108C3.98638 6.75076 3.73526 7.1319 3.4884 7.51011C2.69532 6.55044 1.89941 5.59374 1.0936 4.64324C0.596566 4.07251 -0.279284 4.71293 0.0872424 5.38797C0.961664 6.93638 1.82332 8.49952 2.6703 10.0644C3.04059 10.7921 4.13399 10.8052 4.51232 10.0722C5.00084 9.18857 5.44869 8.31517 5.91922 7.48033C6.83147 5.8447 7.88182 4.32935 9.18182 3.00415C9.82593 2.34276 10.5202 1.72861 11.2499 1.15254C11.5081 0.956126 11.58 0.582298 11.4045 0.297171L11.4049 0.296834Z" fill="#22C55E"/>
</svg>
