<svg width="26" height="24" viewBox="0 0 26 24" fill="none" xmlns="http://www.w3.org/2000/svg">
<path d="M25.7833 0.671057C25.3685 -0.00216657 24.5035 -0.202721 23.8493 0.224817C21.9943 1.43686 20.1941 2.76238 18.4897 4.22772C15.0781 7.13222 12.1189 10.6813 9.59902 14.4032C9.01208 15.2616 8.44436 16.1232 7.88629 16.9782C6.09337 14.8087 4.29404 12.6459 2.47232 10.497C1.34867 9.20679 -0.631382 10.6546 0.197231 12.1807C2.17405 15.6812 4.12202 19.215 6.0368 22.7528C6.87392 24.3978 9.34578 24.4276 10.2011 22.7704C11.3055 20.7728 12.3179 18.7983 13.3817 16.9109C15.444 13.2132 17.8186 9.78743 20.7575 6.79154C22.2136 5.29632 23.7832 3.9079 25.4328 2.60557C26.0165 2.16153 26.179 1.31641 25.7824 0.671819L25.7833 0.671057Z" fill="white"/>
</svg>
