<svg width="30" height="15" viewBox="0 0 30 15" fill="none" xmlns="http://www.w3.org/2000/svg">
<path d="M29.8699 7.99725C28.6203 5.71678 26.3398 3.62375 23.4658 2.15551C20.748 0.74974 17.7491 0 15 0C12.2509 0 9.25198 0.78098 6.53416 2.15551C3.66015 3.62375 1.37968 5.71678 0.130112 7.99725C-0.151041 8.52831 0.0363975 9.1531 0.567465 9.43426C0.723661 9.52797 0.911094 9.55921 1.06729 9.55921C1.44216 9.55921 1.81703 9.37178 2.00447 8.99691C3.62891 6.02918 7.00275 3.87367 10.4703 2.84277C9.06454 4.09234 8.15861 5.93545 8.15861 7.96601C8.15861 11.746 11.2201 14.8074 15 14.8074C18.78 14.8074 21.8414 11.746 21.8414 7.96601C21.8414 5.93545 20.9355 4.09234 19.5297 2.84277C22.966 3.9049 26.3711 6.02918 27.9955 8.99691C28.183 9.34054 28.5578 9.55921 28.9327 9.55921C29.1201 9.55921 29.2763 9.52797 29.4325 9.43426C29.9636 9.1531 30.151 8.49708 29.8699 7.99725ZM15 5.74802C13.7817 5.74802 12.782 6.74768 12.782 7.96601C12.782 8.52831 12.3134 8.99691 11.7511 8.99691C11.1888 8.99691 10.7202 8.52831 10.7202 7.96601C10.7202 5.59182 12.6258 3.68623 15 3.68623C15.5623 3.68623 16.0309 4.15482 16.0309 4.71713C16.0309 5.27943 15.5623 5.74802 15 5.74802Z" fill="white"/>
</svg>
