<svg width="13" height="8" viewBox="0 0 13 8" fill="none" xmlns="http://www.w3.org/2000/svg">
<path fill-rule="evenodd" clip-rule="evenodd" d="M1.625 0H11.375C12.2724 0 13 0.67157 13 1.5V6.5C13 7.3284 12.2724 8 11.375 8H1.625C0.727534 8 0 7.3284 0 6.5V1.5C0 0.67157 0.727534 0 1.625 0ZM1.625 1C1.32585 1 1.08333 1.22386 1.08333 1.5V6.5C1.08333 6.7761 1.32585 7 1.625 7H11.375C11.6741 7 11.9167 6.7761 11.9167 6.5V1.5C11.9167 1.22386 11.6741 1 11.375 1H1.625ZM6.64434 1.64999C6.45569 1.64999 6.26131 1.76735 6.26131 1.95454V2.07904C5.77991 2.13829 5.42954 2.32565 5.22709 2.58478C4.99274 2.88476 4.98035 3.25731 5.16381 3.53051C5.34262 3.79681 5.58341 3.9557 5.84845 4.05489C5.98543 4.10616 6.12857 4.14075 6.26131 4.16732V5.28392C6.16562 5.25098 6.10335 5.20501 6.0596 5.15876C5.96618 5.05999 5.92857 4.92647 5.92857 4.81817C5.92857 4.63098 5.73419 4.51362 5.54554 4.51362C5.35689 4.51362 5.16251 4.63098 5.16251 4.81817C5.16251 5.01659 5.22621 5.2922 5.44722 5.52587C5.62856 5.71758 5.89825 5.86163 6.26131 5.91656V6.0454C6.26131 6.2326 6.45569 6.35 6.64434 6.35C6.83298 6.35 7.02737 6.2326 7.02737 6.0454V5.90864C7.46256 5.83883 7.7794 5.66016 7.97157 5.42046C8.20828 5.12521 8.23035 4.76626 8.09949 4.50147C7.94737 4.19368 7.73121 3.98755 7.46706 3.85048C7.32169 3.77503 7.17054 3.72536 7.02738 3.68935V2.74983C7.0911 2.78104 7.13873 2.81834 7.17568 2.85655C7.27958 2.96401 7.31615 3.09927 7.31615 3.1818C7.31615 3.36899 7.51053 3.48635 7.69919 3.48635C7.88784 3.48635 8.08222 3.36899 8.08222 3.1818C8.08222 2.99171 8.00896 2.71785 7.78318 2.48433C7.6115 2.3068 7.36192 2.16412 7.02738 2.0984V1.95454C7.02738 1.76735 6.83298 1.64999 6.64434 1.64999ZM5.87772 2.90747C5.93733 2.83118 6.05063 2.74572 6.26131 2.70039V3.53209C6.23209 3.52354 6.20398 3.51428 6.17659 3.50403C6.04884 3.45621 5.93526 3.385 5.83936 3.24219C5.792 3.17164 5.77979 3.03282 5.87772 2.90747ZM7.02737 5.27706L7.02738 4.35071L7.04675 4.36043C7.16448 4.42153 7.28619 4.52225 7.38677 4.72577C7.42872 4.81065 7.42887 4.96306 7.32567 5.09179C7.27218 5.15852 7.18186 5.22966 7.02737 5.27706ZM10.8333 4.1C10.8333 4.43137 10.5423 4.7 10.1833 4.7C9.82432 4.7 9.53333 4.43137 9.53333 4.1C9.53333 3.76863 9.82432 3.5 10.1833 3.5C10.5423 3.5 10.8333 3.76863 10.8333 4.1ZM2.81667 4.7C3.17565 4.7 3.46667 4.43137 3.46667 4.1C3.46667 3.76863 3.17565 3.5 2.81667 3.5C2.45768 3.5 2.16667 3.76863 2.16667 4.1C2.16667 4.43137 2.45768 4.7 2.81667 4.7Z" fill="black"/>
</svg>
