<svg width="48" height="54" viewBox="0 0 48 54" fill="none" xmlns="http://www.w3.org/2000/svg">
<path d="M47.6491 44.5534C47.6491 45.1891 47.1347 45.7034 46.499 45.7034C45.8634 45.7034 45.349 45.189 45.349 44.5534V43.4775H43.6576C43.0781 43.4775 42.5548 43.5246 42.0651 43.6235C41.5777 43.7223 41.0768 43.8818 40.5422 44.1064L37.2269 45.4923C35.8028 46.0898 34.3585 46.3953 32.8986 46.4042C31.4453 46.411 29.9988 46.1257 28.568 45.5417L24.9562 44.0727C24.4463 43.866 23.9589 43.7155 23.4647 43.619C22.9773 43.5246 22.4696 43.4797 21.9148 43.4797H13.4983L10.2817 49.0524C10.1762 49.2344 10.0302 49.3759 9.86171 49.4725L2.67397 53.8345C2.13489 54.1624 1.42733 53.9873 1.10164 53.4482C0.984845 53.2573 0.93318 53.0439 0.935428 52.8327L1.11737 44.4007C1.12186 44.1985 1.17802 44.0098 1.27011 43.8481L3.3411 40.2565L2.62233 39.8432C2.03161 39.5018 1.53295 39.0728 1.13084 38.5628L1.06121 38.4775C0.647918 37.9317 0.351409 37.3072 0.171716 36.6064C-0.00797762 35.9056 -0.0461642 35.216 0.0549184 34.5422C0.151504 33.8953 0.378366 33.2664 0.731025 32.6667L6.49272 23.2013C6.97789 22.4017 7.59112 21.7548 8.31886 21.2628C9.05109 20.7732 9.88223 20.443 10.7964 20.2903L15.3067 19.5333L25.0867 2.59726C25.8032 1.3574 26.9599 0.524029 28.247 0.178155C29.5296 -0.165511 30.9491 -0.0217561 32.1913 0.694775C33.4379 1.41131 34.2713 2.57031 34.6149 3.85738C34.9586 5.13996 34.8126 6.55951 34.0983 7.80167L27.7598 18.7857L37.8359 24.5899C38.2919 24.8527 38.7478 25.0436 39.2218 25.1717C39.6845 25.2952 40.1764 25.3536 40.7133 25.3536H45.3494V23.8779C45.3494 23.2422 45.8638 22.7278 46.4994 22.7278C47.1351 22.7278 47.6495 23.2422 47.6495 23.8779V30.5757C47.6495 31.2114 47.1351 31.7257 46.4994 31.7257C45.8637 31.7257 45.3494 31.2114 45.3494 30.5757V27.6512H40.7133C39.9855 27.6512 39.3005 27.5659 38.6311 27.3862C37.973 27.211 37.3373 26.9414 36.6949 26.573L26.6142 20.7688L19.5139 33.0644H21.6095C22.2452 33.0644 22.7596 33.5788 22.7596 34.2145C22.7596 34.8501 22.2452 35.3645 21.6095 35.3645H17.6922C16.0705 35.3645 14.5948 36.0136 13.5166 37.0626L13.4627 37.1187C12.4182 38.1632 11.7533 39.594 11.7084 41.1731H21.9196C22.6137 41.1731 23.2651 41.2337 23.9097 41.3573C24.5499 41.4831 25.1765 41.674 25.8234 41.9368L29.4352 43.4058C30.5965 43.8775 31.751 44.1111 32.8943 44.1066C34.0309 44.0999 35.1854 43.8528 36.3422 43.3676L39.6553 41.9772C40.3022 41.7054 40.9446 41.5055 41.6207 41.3707C42.2946 41.2337 42.9639 41.1708 43.6625 41.1708H45.3538V37.8488C45.3538 37.2131 45.8682 36.6987 46.5039 36.6987C47.1395 36.6987 47.6539 37.2131 47.6539 37.8488V44.5466L47.6491 44.5534ZM47.6491 34.4031C47.6491 35.0388 47.1347 35.5532 46.499 35.5532C45.8634 35.5532 45.349 35.0388 45.349 34.4031V34.028C45.349 33.3923 45.8634 32.878 46.499 32.878C47.1347 32.878 47.6491 33.3924 47.6491 34.028V34.4031ZM17.0385 21.1305L3.40423 44.7466L3.27396 50.7935L8.44689 47.6534L10.857 43.4777H10.556C9.92035 43.4777 9.40599 42.9634 9.40599 42.3277V41.3506C9.40599 39.0685 10.3359 36.9976 11.8364 35.4946L11.906 35.4317C13.211 34.1559 14.9316 33.3069 16.8408 33.1092L28.9185 12.1929L23.8804 9.28407L17.0428 21.1283L17.0385 21.1305ZM13.8197 22.1166L11.176 22.5591C10.5807 22.6602 10.0529 22.8646 9.60587 23.1656C9.15439 23.4755 8.76583 23.8888 8.45583 24.3987L2.70334 33.8393C2.50793 34.174 2.38438 34.5199 2.33272 34.8771C2.27657 35.2477 2.30128 35.6385 2.4046 36.0428C2.50568 36.4471 2.67414 36.7998 2.89876 37.0963L2.94144 37.1569C3.15932 37.4264 3.43784 37.66 3.77924 37.8577L4.49129 38.271L13.8198 22.1118L13.8197 22.1166ZM27.0745 3.75163L25.0237 7.30283L30.0619 10.2116L32.1126 6.65818C32.5102 5.97086 32.5911 5.17572 32.3979 4.45246C32.207 3.73369 31.7398 3.08455 31.0479 2.68474C30.3606 2.28716 29.5655 2.20631 28.8422 2.39948C28.1234 2.59265 27.4743 3.05759 27.0767 3.74945L27.0745 3.75163Z" fill="#223A93"/>
</svg>
